<svg xmlns="http://www.w3.org/2000/svg" xmlns:xlink="http://www.w3.org/1999/xlink" width="20" height="20" viewBox="0 0 20 20">
  <defs>
    <clipPath id="clip-path">
      <rect id="Rectangle_398" data-name="Rectangle 398" width="20" height="20" transform="translate(-19419 -13558)" fill="#fff"/>
    </clipPath>
  </defs>
  <g id="MAC_Address_filtering" data-name="MAC Address filtering" transform="translate(19419 13558)" clip-path="url(#clip-path)">
    <g id="mac-address" transform="translate(-19420.428 -13559.429)">
      <path id="Path_324" data-name="Path 324" d="M20.714,9.286h-6.9A9.2,9.2,0,0,0,15,5,3.571,3.571,0,1,0,7.857,5,9.2,9.2,0,0,0,9.041,9.286H5V8.571a.715.715,0,0,0-.714-.714H2.143a.714.714,0,1,0,0,1.429H3.571V20.714a.714.714,0,0,0,1.429,0V19.286H8.571v1.429a.715.715,0,0,0,.714.714h3.571a.714.714,0,0,0,.714-.714V19.286h.714v1.429a.714.714,0,0,0,.714.714h3.571a.714.714,0,0,0,.714-.714V19.286h1.429a.714.714,0,0,0,.714-.714V10A.714.714,0,0,0,20.714,9.286ZM11.429,2.857A2.145,2.145,0,0,1,13.571,5a9.3,9.3,0,0,1-2.144,5.327A9.257,9.257,0,0,1,9.286,5,2.145,2.145,0,0,1,11.429,2.857ZM12.143,20H10v-.714h2.143Zm5.714,0H15.714v-.714h2.143ZM20,17.857H5V10.714H9.932a11.37,11.37,0,0,0,.984,1.211.713.713,0,0,0,1.025,0,11.473,11.473,0,0,0,.984-1.211H20Z"/>
      <circle id="Ellipse_21" data-name="Ellipse 21" cx="1.429" cy="1.429" r="1.429" transform="translate(10 3.571)"/>
      <path id="Path_325" data-name="Path 325" d="M12.857,12.857v2.857a.714.714,0,0,0,.714.714h4.286a.714.714,0,0,0,.714-.714V12.857a.714.714,0,0,0-.714-.714H13.571A.714.714,0,0,0,12.857,12.857Zm1.429.714h2.857V15H14.286ZM7.143,12.143a.715.715,0,0,0-.714.714v2.857a.714.714,0,1,0,1.429,0V12.857A.715.715,0,0,0,7.143,12.143Zm2.143,0a.715.715,0,0,0-.714.714v2.857a.714.714,0,0,0,1.429,0V12.857A.715.715,0,0,0,9.286,12.143Zm2.143.714a.715.715,0,0,0-.714.714v2.143a.714.714,0,0,0,1.429,0V13.571A.715.715,0,0,0,11.429,12.857Z"/>
    </g>
  </g>
</svg>
