<svg xmlns="http://www.w3.org/2000/svg" xmlns:xlink="http://www.w3.org/1999/xlink" width="20" height="20" viewBox="0 0 20 20">
  <defs>
    <clipPath id="clip-path">
      <rect id="Rectangle_399" data-name="Rectangle 399" width="20" height="20" transform="translate(-19396 -13558)" fill="#fff"/>
    </clipPath>
  </defs>
  <g id="URL_Filtering" data-name="URL Filtering" transform="translate(19396 13558)" clip-path="url(#clip-path)">
    <path id="url_1_" data-name="url (1)" d="M19.1,1.328a3.814,3.814,0,0,0-5.388,0L10.5,4.537a3.815,3.815,0,0,0-.409,4.9l-.655.655a3.8,3.8,0,0,0-4.9.409L1.332,13.708a3.807,3.807,0,0,0,2.69,6.5A3.786,3.786,0,0,0,6.716,19.1l3.209-3.209a3.815,3.815,0,0,0,.409-4.9l.655-.655a3.806,3.806,0,0,0,4.894-.413l3.209-3.209A3.8,3.8,0,0,0,19.1,1.328ZM9.026,14.985,5.818,18.193a2.538,2.538,0,0,1-3.583,0,2.538,2.538,0,0,1,0-3.583L5.443,11.4a2.533,2.533,0,0,1,3.073-.392L6.779,12.746a.634.634,0,0,0,0,.9.637.637,0,0,0,.9,0l1.732-1.732A2.536,2.536,0,0,1,9.026,14.985ZM18.2,5.813,14.989,9.022a2.536,2.536,0,0,1-3.068.387l1.732-1.728a.638.638,0,0,0-.9-.9L11.018,8.512a2.537,2.537,0,0,1,.387-3.068l3.209-3.209A2.532,2.532,0,0,1,18.2,5.813Z" transform="translate(-19396.213 -13558.212)"/>
  </g>
</svg>
