<svg xmlns="http://www.w3.org/2000/svg" width="20.012" height="20.012" viewBox="0 0 20.012 20.012">
  <g id="vuesax_linear_box-2" data-name="vuesax/linear/box-2" transform="translate(-300 -572)">
    <g id="box-2" transform="translate(300 572)">
      <path id="Vector" d="M9.264,6.487l-1.851.926Zm-1.851.926L5.562,6.487Zm0,0v0ZM14.825,3.7l-1.851.926Zm0,0-1.851-.926Zm0,0v0ZM9.264.926,7.413,0,5.562.926ZM0,3.7l1.851-.926Zm0,0,1.851.926Zm0,0v0ZM7.413,16.676l-1.851-.926Zm0,0,1.851-.926Zm0,0v0ZM1.851,13.9,0,12.974V10.656Zm11.123,0,1.851-.926V10.656" transform="translate(2.593 1.668)" fill="none" stroke="#14213d" stroke-linecap="round" stroke-linejoin="round" stroke-width="1.5"/>
      <path id="Vector-2" data-name="Vector" d="M0,0H20.012V20.012H0Z" fill="none" opacity="0"/>
    </g>
  </g>
</svg>
