<svg xmlns="http://www.w3.org/2000/svg" width="19.578" height="19.578" viewBox="0 0 19.578 19.578">
  <g id="Kernel_log" data-name="Kernel log" transform="translate(-108 -188)">
    <g id="cpu" transform="translate(108 188)">
      <path id="Vector" d="M4.568,13.052H8.484c3.263,0,4.568-1.305,4.568-4.568V4.568C13.052,1.305,11.747,0,8.484,0H4.568C1.305,0,0,1.305,0,4.568V8.484C0,11.747,1.305,13.052,4.568,13.052Z" transform="translate(3.263 3.263)" fill="none" stroke="#14213d" stroke-linecap="round" stroke-linejoin="round" stroke-width="1.5"/>
      <path id="Vector-2" data-name="Vector" d="M2.855,8.158H5.3c2.039,0,2.855-.816,2.855-2.855V2.855C8.158.816,7.342,0,5.3,0H2.855C.816,0,0,.816,0,2.855V5.3C0,7.342.816,8.158,2.855,8.158Z" transform="translate(5.71 5.71)" fill="none" stroke="#14213d" stroke-linecap="round" stroke-linejoin="round" stroke-width="1.5"/>
      <path id="Vector-3" data-name="Vector" d="M0,1.632V0" transform="translate(6.534 1.632)" fill="none" stroke="#14213d" stroke-linecap="round" stroke-linejoin="round" stroke-width="1.5"/>
      <path id="Vector-4" data-name="Vector" d="M0,1.632V0" transform="translate(9.789 1.632)" fill="none" stroke="#14213d" stroke-linecap="round" stroke-linejoin="round" stroke-width="1.5"/>
      <path id="Vector-5" data-name="Vector" d="M0,1.632V0" transform="translate(13.052 1.632)" fill="none" stroke="#14213d" stroke-linecap="round" stroke-linejoin="round" stroke-width="1.5"/>
      <path id="Vector-6" data-name="Vector" d="M0,0H1.632" transform="translate(16.315 6.526)" fill="none" stroke="#14213d" stroke-linecap="round" stroke-linejoin="round" stroke-width="1.5"/>
      <path id="Vector-7" data-name="Vector" d="M0,0H1.632" transform="translate(16.315 9.789)" fill="none" stroke="#14213d" stroke-linecap="round" stroke-linejoin="round" stroke-width="1.5"/>
      <path id="Vector-8" data-name="Vector" d="M0,0H1.632" transform="translate(16.315 13.052)" fill="none" stroke="#14213d" stroke-linecap="round" stroke-linejoin="round" stroke-width="1.5"/>
      <path id="Vector-9" data-name="Vector" d="M0,0V1.632" transform="translate(13.052 16.315)" fill="none" stroke="#14213d" stroke-linecap="round" stroke-linejoin="round" stroke-width="1.5"/>
      <path id="Vector-10" data-name="Vector" d="M0,0V1.632" transform="translate(9.797 16.315)" fill="none" stroke="#14213d" stroke-linecap="round" stroke-linejoin="round" stroke-width="1.5"/>
      <path id="Vector-11" data-name="Vector" d="M0,0V1.632" transform="translate(6.534 16.315)" fill="none" stroke="#14213d" stroke-linecap="round" stroke-linejoin="round" stroke-width="1.5"/>
      <path id="Vector-12" data-name="Vector" d="M0,0H1.632" transform="translate(1.632 6.526)" fill="none" stroke="#14213d" stroke-linecap="round" stroke-linejoin="round" stroke-width="1.5"/>
      <path id="Vector-13" data-name="Vector" d="M0,0H1.632" transform="translate(1.632 9.789)" fill="none" stroke="#14213d" stroke-linecap="round" stroke-linejoin="round" stroke-width="1.5"/>
      <path id="Vector-14" data-name="Vector" d="M0,0H1.632" transform="translate(1.632 13.052)" fill="none" stroke="#14213d" stroke-linecap="round" stroke-linejoin="round" stroke-width="1.5"/>
      <path id="Vector-15" data-name="Vector" d="M0,0H19.578V19.578H0Z" fill="none" opacity="0"/>
    </g>
  </g>
</svg>
