<svg xmlns="http://www.w3.org/2000/svg" width="32" height="31" viewBox="0 0 32 31">
  <g id="Maintenance" transform="translate(-23 -159)">
    <rect id="Rectangle_17791" data-name="Rectangle 17791" width="32" height="31" rx="5" transform="translate(23 159)" fill="#fff"/>
    <g id="Maintenance-2" data-name="Maintenance" transform="translate(-465 -153)">
      <g id="task-square">
        <path id="Vector" d="M0,0H5.25" transform="translate(504.37 324.88)" fill="none" stroke="#fff" stroke-linecap="round" stroke-linejoin="round" stroke-width="1.5"/>
        <path id="Vector-2" data-name="Vector" d="M0,1.5l.75.75L3,0" transform="translate(498.38 323.38)" fill="none" stroke="#fff" stroke-linecap="round" stroke-linejoin="round" stroke-width="1.5"/>
        <path id="Vector-3" data-name="Vector" d="M0,0H5.25" transform="translate(504.37 331.88)" fill="none" stroke="#fff" stroke-linecap="round" stroke-linejoin="round" stroke-width="1.5"/>
        <path id="Vector-4" data-name="Vector" d="M0,1.5l.75.75L3,0" transform="translate(498.38 330.38)" fill="none" stroke="#fff" stroke-linecap="round" stroke-linejoin="round" stroke-width="1.5"/>
        <path id="Vector-5" data-name="Vector" d="M7,20h6c5,0,7-2,7-7V7c0-5-2-7-7-7H7C2,0,0,2,0,7v6C0,18,2,20,7,20Z" transform="translate(494 318)" fill="none" stroke="#fff" stroke-linecap="round" stroke-linejoin="round" stroke-width="1.5"/>
        <path id="Vector-6" data-name="Vector" d="M0,0H24V24H0Z" transform="translate(492 316)" fill="none" opacity="0"/>
      </g>
    </g>
  </g>
</svg>
