<svg xmlns="http://www.w3.org/2000/svg" width="21.703" height="21.703" viewBox="0 0 21.703 21.703">
  <g id="SIA" transform="translate(-300 -188)">
    <g id="setting-2" transform="translate(300 188)">
      <path id="Vector" d="M6,3A3,3,0,1,1,3,0,3,3,0,0,1,6,3Z" transform="translate(7.852 7.852)" fill="none" stroke="#14213d" stroke-linecap="round" stroke-linejoin="round" stroke-width="1.5"/>
      <path id="Vector-2" data-name="Vector" d="M0,9.063V7.518A1.68,1.68,0,0,1,1.682,5.849c1.6,0,2.257-1.124,1.452-2.5a1.661,1.661,0,0,1,.62-2.275L5.285.2A1.484,1.484,0,0,1,7.3.728l.1.167c.8,1.379,2.107,1.379,2.912,0l.1-.167A1.484,1.484,0,0,1,12.428.2l1.531.87a1.661,1.661,0,0,1,.62,2.275c-.806,1.379-.15,2.5,1.452,2.5a1.68,1.68,0,0,1,1.682,1.669V9.063a1.68,1.68,0,0,1-1.682,1.669c-1.6,0-2.257,1.124-1.452,2.5a1.659,1.659,0,0,1-.62,2.275l-1.531.87a1.484,1.484,0,0,1-2.018-.527l-.1-.167c-.8-1.379-2.107-1.379-2.912,0l-.1.167a1.484,1.484,0,0,1-2.018.527l-1.531-.87a1.661,1.661,0,0,1-.62-2.275c.806-1.379.15-2.5-1.452-2.5A1.68,1.68,0,0,1,0,9.063Z" transform="translate(2 2.561)" fill="none" stroke="#14213d" stroke-linecap="round" stroke-linejoin="round" stroke-width="1.5"/>
      <path id="Vector-3" data-name="Vector" d="M0,0H21.7V21.7H0Z" fill="none" opacity="0"/>
    </g>
  </g>
</svg>
