<?xml version="1.0" encoding="UTF-8" standalone="no" ?>
<!DOCTYPE svg PUBLIC "-//W3C//DTD SVG 1.1//EN" "http://www.w3.org/Graphics/SVG/1.1/DTD/svg11.dtd">
<svg xmlns="http://www.w3.org/2000/svg" xmlns:xlink="http://www.w3.org/1999/xlink" version="1.1" width="145" height="55" viewBox="0 0 145 55" xml:space="preserve">
<desc>Created with Fabric.js 3.6.6</desc>
<defs>
</defs>
<rect x="0" y="0" width="100%" height="100%" fill="rgba(255, 255, 255, 0)"></rect>
<g transform="matrix(1 0 0 1 73.25 27.89)"  >
<g style=""   >
		<g transform="matrix(1.33 0 0 0.48 0 0)"  >
<polygon style="stroke: rgb(26,44,235); stroke-width: 1; stroke-dasharray: none; stroke-linecap: butt; stroke-dashoffset: 0; stroke-linejoin: miter; stroke-miterlimit: 4; fill: rgb(255,255,255); fill-rule: nonzero; opacity: 1;"  points="-50,-50 -50,50 50,50 50,-50 " />
</g>
		<g transform="matrix(0.47 0 0 0.47 -2.45 -0.22)"  >
<g style=""   >
		<g transform="matrix(0.36 0 0 0.36 -107.07 -1.91)"  >
<linearGradient id="SVGID_117" gradientUnits="objectBoundingBox" gradientTransform="matrix(-0.84 -0.54 0.54 -0.84 93.47 279.37)"  x1="0" y1="0" x2="0" y2="1">
<stop offset="0%" style="stop-color:rgb(35,104,182);stop-opacity: 1"/>
<stop offset="28.000000000000004%" style="stop-color:rgb(40,102,179);stop-opacity: 1"/>
<stop offset="63%" style="stop-color:rgb(61,67,153);stop-opacity: 1"/>
<stop offset="100%" style="stop-color:rgb(66,62,147);stop-opacity: 1"/>
</linearGradient>
<path style="stroke: none; stroke-width: 1; stroke-dasharray: none; stroke-linecap: butt; stroke-dashoffset: 0; stroke-linejoin: miter; stroke-miterlimit: 4; fill: url(#SVGID_117); fill-rule: nonzero; opacity: 1;"  transform=" translate(-92.82, -278.17)" d="m 83.0344 366.638 c 0 0 -14.9523 -9.858 -17.2043 -13.8667 c -2.252 -4.0088 -1.295 -7.0248 -1.295 -7.0248 c 0 0 19.1051 -107.402 36.5059 -152.2733 c 4.7782 -12.8856 20.2751 11.4578 20.2751 11.4578 c 0 0 -20.624 56.0108 -38.2817 161.707 z" stroke-linecap="round" />
</g>
		<g transform="matrix(0.36 0 0 0.36 -90.01 6.81)"  >
<linearGradient id="SVGID_118" gradientUnits="objectBoundingBox" gradientTransform="matrix(-0.8 -0.6 0.6 -0.8 140.81 303.58)"  x1="0" y1="0" x2="0" y2="1">
<stop offset="0%" style="stop-color:rgb(140,60,31);stop-opacity: 1"/>
<stop offset="76%" style="stop-color:rgb(241,131,52);stop-opacity: 1"/>
<stop offset="100%" style="stop-color:rgb(245,134,52);stop-opacity: 1"/>
</linearGradient>
<path style="stroke: none; stroke-width: 1; stroke-dasharray: none; stroke-linecap: butt; stroke-dashoffset: 0; stroke-linejoin: miter; stroke-miterlimit: 4; fill: url(#SVGID_118); fill-rule: nonzero; opacity: 1;"  transform=" translate(-140.21, -302.38)" d="m 17.5558 301.3119 c 0 0 8.7316 -16.8298 13.3011 -20.7839 c 4.57 -3.9545 8.7059 -3.5162 8.7059 -3.5162 c 0 0 157.4611 6.0435 216.0222 17.597 c 17.8517 2.7624 -2.5055 32.0936 -4.5171 33.031 c -2.4891 1.7858 -87.5253 -17.0443 -233.5121 -26.3279 z" stroke-linecap="round" />
</g>
		<g transform="matrix(0.36 0 0 0.36 47.13 -12.88)"  >
<path style="stroke: rgb(62,64,149); stroke-width: 0.22; stroke-dasharray: none; stroke-linecap: butt; stroke-dashoffset: 0; stroke-linejoin: miter; stroke-miterlimit: 4; fill: rgb(62,64,149); fill-rule: evenodd; opacity: 1;"  transform=" translate(-521.16, -247.69)" d="m 278.9994 285.5845 l 25.1223 -38.015 l -23.8645 -37.7707 h 12.7882 l 18.1692 28.4765 l 19.0949 -28.4765 h 10.1152 l -24.1786 36.5302 l 24.8075 39.2555 h -12.7881 l -19.1998 -30.0136 l -19.8811 30.0136 z m 74.5279 0 v -75.7857 h 42.3478 v 8.0711 h -31.5514 v 24.3188 h 26.4325 v 8.0711 h -26.4325 v 27.2536 h 33.7523 v 8.0711 z m 47.9029 0 l 25.1224 -38.015 l -23.8645 -37.7707 h 12.7881 l 18.1693 28.4765 l 19.0948 -28.4765 h 10.1152 l -24.1786 36.5302 l 24.8075 39.2555 h -12.7881 l -19.1998 -30.0136 l -19.881 30.0136 z m 65.6179 0 l 30.0315 -75.7857 h 10.6391 l 29.5598 75.7857 h -11.583 l -8.2458 -20.9642 h -32.0054 l -8.3681 20.9642 z m 21.4886 -29.0354 h 25.7684 L 501.4294 224.002 Z m 116.6659 26.974 c -9.1718 2.6381 -17.1732 3.9482 -23.9865 3.9482 c -12.0372 0 -21.2613 -3.4242 -27.6904 -10.2724 c -6.4291 -6.8311 -9.6435 -16.6667 -9.6435 -29.5071 c 0 -12.6312 3.267 -22.4145 9.8007 -29.3676 c 6.5163 -6.9357 15.7059 -10.4122 27.5332 -10.4122 c 7.5994 0 15.566 1.1533 23.8815 3.4591 v 9.9579 c -10.4296 -3.5637 -18.4136 -5.3459 -23.969 -5.3459 c -8.1761 0 -14.5352 2.7779 -19.0426 8.3159 c -4.5245 5.538 -6.7785 13.3474 -6.7785 23.4451 c 0 9.9928 2.4112 17.7673 7.2327 23.3227 c 4.8394 5.5555 11.6004 8.3334 20.3005 8.3334 c 3.564 0 7.4248 -0.629 11.5651 -1.8868 v -24.6507 h 10.7968 z m 49.8601 3.9482 c -10.7441 0 -19.3396 -3.6163 -25.7861 -10.8316 c -6.4291 -7.2153 -9.6435 -16.8588 -9.6435 -28.9479 c 0 -12.0895 3.2144 -21.7329 9.6435 -28.9482 c 6.4465 -7.2153 15.042 -10.8316 25.7861 -10.8316 c 10.7442 0 19.3393 3.6163 25.7858 10.8316 c 6.4291 7.2153 9.6435 16.8587 9.6435 28.9482 c 0 12.0891 -3.2144 21.7326 -9.6435 28.9479 c -6.4465 7.2153 -15.0416 10.8316 -25.7858 10.8316 z m 0 -8.0711 c 7.5472 0 13.4345 -2.8128 17.6624 -8.4209 c 4.2278 -5.6077 6.3416 -13.3996 6.3416 -23.3924 c 0 -9.9231 -2.1138 -17.6624 -6.3416 -23.2352 c -4.2279 -5.5732 -10.1152 -8.3686 -17.6624 -8.3686 c -7.5471 0 -13.4348 2.7954 -17.6623 8.3686 c -4.2278 5.5728 -6.342 13.3121 -6.342 23.2352 c 0 9.9928 2.1142 17.7847 6.342 23.3924 c 4.2275 5.6081 10.1152 8.4209 17.6623 8.4209 z m 50.4016 6.1843 v -75.7857 h 10.5346 l 38.1022 58.5951 v -58.5951 h 9.2245 v 75.7857 h -10.4823 l -38.1549 -58.5951 v 58.5951 z" stroke-linecap="round" />
</g>
		<g transform="matrix(0.36 0 0 0.36 44.62 24.16)"  >
<path style="stroke: none; stroke-width: 1; stroke-dasharray: none; stroke-linecap: butt; stroke-dashoffset: 0; stroke-linejoin: miter; stroke-miterlimit: 4; fill: rgb(27,25,24); fill-rule: evenodd; opacity: 1;"  transform=" translate(-514.17, -350.57)" d="m 277.041 361.6488 c -1.5111 -4.2034 -2.2083 -9.8667 -2.0926 -16.9904 c 0.1161 -7.1233 0.8629 -13.3845 2.241 -18.7823 c 1.378 -5.3978 2.9514 -8.0971 4.7214 -8.0971 c 0.6638 0 1.3387 0.4317 2.0251 1.2942 c 0.686 0.8629 1.22 1.8252 1.602 2.8873 c 0.7472 2.0793 1.025 4.7893 0.8318 8.1301 c -0.1925 3.3405 -0.9023 6.659 -2.1282 9.9554 c -1.2268 3.2963 -2.8083 5.6967 -4.7456 7.2008 c -0.1932 1.062 -0.152 3.053 0.1231 5.9733 c 0.2756 2.9203 0.8507 5.597 1.7259 8.0308 c 1.5111 4.2033 3.4836 6.3048 5.917 6.3048 c 1.2831 0 2.4197 -0.531 3.4135 -1.5815 c 0.9938 -1.051 1.615 -2.4004 1.859 -4.0599 c -1.8349 -0.7962 -3.4554 -1.9799 -4.8605 -3.5507 c -1.4055 -1.5705 -2.4264 -3.2411 -3.0623 -5.0107 c -0.7476 -2.0796 -0.814 -3.7721 -0.1992 -5.0774 c 0.6149 -1.305 1.6966 -1.9577 3.2452 -1.9577 c 1.283 0 2.4912 0.5307 3.6252 1.5928 c 1.1344 1.062 2.0511 2.5661 2.7508 4.513 c 1.0499 2.9203 1.3573 5.9288 0.9223 9.0264 c 0.5785 0.1324 1.1774 0.1988 1.7967 0.1988 c 1.1062 0 2.0485 -0.2099 2.8265 -0.6304 c 0.7783 -0.4202 1.3587 -1.051 1.7425 -1.8917 c 0.3834 -0.8406 0.6701 -1.5816 0.86 -2.2231 c 0.1894 -0.6415 0.3448 -1.4711 0.4657 -2.489 l 1.1066 0.8629 c -0.2659 5.0441 -2.5228 7.5661 -6.7707 7.5661 c -0.752 0 -1.484 -0.0664 -2.1953 -0.1991 c -1.1548 4.9112 -3.7891 7.3669 -7.9043 7.3669 c -2.2565 0 -4.2263 -0.7413 -5.9095 -2.2235 c -1.6836 -1.4822 -2.9945 -3.5285 -3.9331 -6.1391 z m 2.2547 -16.9904 c 2.0203 -2.2565 3.4684 -5.8291 4.3432 -10.7185 c 0.8748 -4.8891 0.9626 -8.307 0.2625 -10.2539 c -0.1272 -0.3542 -0.2792 -0.531 -0.4561 -0.531 c -0.4865 0 -1.0895 1.062 -1.8082 3.1858 c -0.7187 2.1237 -1.3387 4.9224 -1.8601 8.3956 c -0.521 3.4732 -0.6816 6.7807 -0.4813 9.922 z m 7.7581 9.0264 c 1.1452 3.1854 3.0346 5.4864 5.6671 6.9023 c 0.2381 -2.1683 -0.0564 -4.4025 -0.8833 -6.7032 c -0.5411 -1.5044 -1.1845 -2.71 -1.9309 -3.6171 c -0.7465 -0.907 -1.4296 -1.3605 -2.0489 -1.3605 c -0.6638 0 -1.0832 0.4642 -1.2579 1.3935 c -0.1746 0.9293 -0.0233 2.0574 0.4539 3.385 z m 15.4177 6.7031 c -1.4633 -4.0706 -1.1158 -8.274 1.0417 -12.6101 c 2.1583 -4.3361 5.1394 -6.504 8.9556 -6.504 c 2.7323 0 4.589 1.3495 5.5595 4.0484 c 1.1611 3.2299 0.4724 6.0838 -2.0767 8.5617 c -2.5494 2.4776 -5.7823 3.9156 -9.6876 4.3139 c 0.0931 0.7521 0.2911 1.5486 0.5934 2.3893 c 1.3361 3.7165 3.7409 5.5751 7.2253 5.5751 c 2.6989 0 5.0143 -1.1285 6.9464 -3.385 c 1.932 -2.2565 3.1639 -5.044 3.6968 -8.3626 l 1.0109 0.5974 c -0.3616 3.916 -1.684 7.0684 -3.9709 9.4466 c -2.2862 2.3781 -5.0908 3.5618 -8.4093 3.5618 c -2.6214 0 -4.8891 -0.7079 -6.8066 -2.1349 c -1.918 -1.4269 -3.2752 -3.2633 -4.0785 -5.4976 z m 3.6705 -3.4513 c 2.6778 -1.1062 5.0456 -2.7653 7.0933 -4.9777 c 2.0474 -2.212 2.6121 -4.5794 1.7055 -7.1014 c -0.3657 -1.0175 -1.0135 -1.5263 -1.9317 -1.5263 c -2.0685 0 -3.7929 1.4488 -5.1731 4.3472 c -1.381 2.8981 -1.9528 5.9841 -1.694 9.2582 z m 27.2921 25.9171 c -1.0038 -0.6082 -1.708 -1.46 -2.1055 -2.5662 c -0.3979 -1.1062 -0.5107 -2.1571 -0.3412 -3.1636 c 0.1732 -0.9956 0.4276 -1.8252 0.7865 -2.489 c 0.3549 -0.6745 1.0899 -1.4599 2.1909 -2.367 c 1.108 -0.9182 1.9795 -1.5708 2.6325 -1.9687 l 3.2277 -2.0685 c 0.0983 -3.4184 -0.1068 -7.4667 -0.6426 -12.1566 c -1.4418 5.6192 -3.6731 8.4286 -6.6928 8.4286 c -1.3939 0 -2.7849 -0.4535 -4.1614 -1.3606 c -1.3769 -0.907 -2.37 -2.2231 -2.9904 -3.949 c -0.8748 -2.4334 -1.2416 -5.4531 -1.0892 -9.059 c 0.1417 -3.6064 0.6991 -5.4093 1.6617 -5.4093 c 0.4091 0 1.055 0.1661 1.9488 0.498 c 0.8937 0.3315 1.4039 0.6745 1.5311 1.0287 c -0.4235 1.283 -0.6308 3.3515 -0.6337 6.2055 c 0.008 2.8539 0.3144 5.1212 0.9189 6.8025 c 0.6363 1.77 1.7511 2.6548 3.3549 2.6548 c 1.1948 0 2.3051 -0.8184 3.3427 -2.4557 c 1.0264 -1.6368 1.8515 -3.6501 2.4523 -6.0393 c -0.049 -0.7524 -0.194 -1.77 -0.4335 -3.0531 c -0.3249 -2.2565 0.409 -3.3849 2.1786 -3.3849 c 0.3983 0 0.8867 0.0663 1.4767 0.1991 c 0.4294 1.1948 0.8032 3.6505 1.144 7.3669 c 0.3404 3.7169 0.4376 7.4334 0.3137 11.1502 c 4.3109 -1.9469 6.6205 -5.7078 6.9279 -11.2829 l 1.1017 0.6638 c 0.2236 5.1768 -2.4771 9.3249 -8.1115 12.4221 c -0.5311 10.829 -2.7642 16.2491 -6.7021 16.2491 c -1.1833 0 -2.2862 -0.2985 -3.2867 -0.8959 z m -0.2629 -3.1636 c 0.1587 0.4424 0.4765 0.8959 0.9345 1.3387 c 0.4687 0.4424 0.9794 0.6634 1.5434 0.6634 c 0.4869 0 1.0016 -0.3537 1.5434 -1.0617 c 0.5377 -0.719 1.068 -2.0132 1.572 -3.9048 c 0.5184 -1.8805 0.8414 -4.1812 0.9734 -6.8912 c -1.4355 0.9289 -2.4968 1.6702 -3.201 2.2343 c -0.6972 0.5533 -1.4529 1.25 -2.2458 2.0907 c -0.7999 0.8518 -1.2864 1.7144 -1.444 2.5995 c -0.1643 0.896 -0.0578 1.8694 0.3241 2.9311 z m 17.7981 -18.4285 c -1.018 -2.8316 -1.2282 -5.6633 -0.6234 -8.4727 c 0.6048 -2.8098 1.8364 -4.2145 3.6946 -4.2145 c 0.3983 0 0.903 0.1105 1.5134 0.3319 c -0.5863 0.7079 -0.9497 2.4664 -1.0899 5.2761 c -0.1402 2.8095 0.076 5.0107 0.6486 6.6038 c 0.9386 2.6103 2.2038 3.9156 3.7969 3.9156 c 1.9465 0 3.6616 -1.8141 5.1449 -5.4423 c -1.6045 -1.0176 -3.0441 -2.3448 -4.3187 -3.982 c -1.2741 -1.6372 -2.2298 -3.3404 -2.8661 -5.1104 c -0.8348 -2.3229 -0.9605 -4.3028 -0.3805 -5.9511 c 0.5804 -1.648 1.8634 -2.4776 3.8548 -2.4776 c 3.0527 0 5.1998 1.7255 6.4406 5.1765 c 1.2408 3.4513 1.1741 7.3892 -0.1995 11.8139 c 0.9553 0.4424 1.8753 0.6635 2.7605 0.6635 c 1.2831 0 2.4708 -0.3872 3.5644 -1.1615 c 1.0932 -0.7743 1.6995 -1.9799 1.8189 -3.6171 l 1.035 0.6638 c -0.1409 1.9469 -0.8184 3.385 -2.0329 4.3139 c -1.2144 0.9293 -2.6407 1.394 -4.2775 1.394 c -1.1948 0 -2.3359 -0.2214 -3.4243 -0.6638 c -1.8693 4.6457 -4.4195 6.9686 -7.6495 6.9686 c -1.8141 0 -3.3401 -0.5529 -4.5783 -1.6591 c -1.2382 -1.1062 -2.1797 -2.5554 -2.832 -4.3695 z m 8.8261 -10.8954 c 1.0814 3.0086 2.6923 5.3978 4.8331 7.1678 c 1.1982 -3.8051 1.2571 -7.2119 0.1754 -10.2208 c -0.8907 -2.4776 -1.9999 -3.7165 -3.3275 -3.7165 c -0.9734 0 -1.6598 0.6745 -2.0596 2.024 c -0.3997 1.3498 -0.2736 2.9314 0.3786 4.7455 z m 14.7769 14.3356 c -0.0478 -0.1327 -0.0344 -1.1725 0.0401 -3.1194 c 0.0745 -1.9465 0.0449 -4.2141 -0.0894 -6.8025 c -0.1342 -2.5884 -0.5036 -4.7233 -1.108 -6.4047 c 0.5065 -0.9293 1.3572 -1.3939 2.552 -1.3939 c 1.1945 0 1.9988 0.5751 2.4123 1.7258 c 0.5407 1.5041 0.8826 4.4244 1.0257 8.7605 c 2.2888 -7.787 5.4906 -11.6808 9.6053 -11.6808 c 1.5709 0 2.9871 0.5863 4.2386 1.7589 c 1.2512 1.1725 2.1653 2.5773 2.7538 4.2141 c 0.5247 1.4603 0.7506 3.3186 0.6768 5.5751 c -0.0734 2.2565 0.0723 3.8937 0.4383 4.9113 c 0.6045 1.6813 1.5593 2.522 2.8536 2.522 c 2.7434 0 4.5997 -3.451 5.5695 -10.3536 l 1.0402 0.8629 c -0.4973 7.4775 -2.9697 11.2162 -7.4167 11.2162 c -1.5041 0 -2.7827 -0.3872 -3.8574 -1.1615 c -1.0746 -0.7743 -1.843 -1.8029 -2.3039 -3.086 c -0.3182 -0.8848 -0.5344 -2.3782 -0.6483 -4.4797 c -0.1142 -2.1018 -0.3619 -3.6834 -0.7438 -4.7455 c -0.7795 -2.1683 -2.0541 -3.2522 -3.8241 -3.2522 c -1.0617 0 -2.0496 0.4205 -2.9644 1.2612 c -0.9145 0.8407 -1.6613 1.7477 -2.2406 2.7212 c -0.5788 0.9734 -1.1655 2.3892 -1.7581 4.2475 c -0.5929 1.8582 -0.996 3.2299 -1.2085 4.1147 l -1.0001 4.0488 c -1.6373 0 -2.9849 -0.4869 -4.0429 -1.4604 z m 31.2663 -3.1194 c -0.8788 -2.4445 -0.9964 -5.2651 -0.3537 -8.462 c 0.6463 -3.1855 1.9672 -5.973 3.9664 -8.3511 c 1.9988 -2.3786 4.3057 -3.5619 6.916 -3.5619 c 1.9469 0 3.1747 0.7079 3.6835 2.1238 c 0.0638 0.1769 0.1309 0.4865 0.2013 0.9293 c -0.7249 -0.6638 -1.685 -0.9957 -2.8798 -0.9957 c -2.2236 0 -4.0228 1.1173 -5.399 3.3516 c -1.3758 2.2342 -2.1923 4.701 -2.4389 7.4003 c -0.2574 2.6989 -0.0546 4.9554 0.5977 6.7695 c 0.3501 0.9735 0.8385 1.7477 1.4656 2.3229 c 0.627 0.5752 1.3275 0.8626 2.0796 0.8626 c 1.9139 0 3.6645 -1.7144 5.2528 -5.1435 c 1.5768 -3.4291 2.4394 -7.7982 2.5773 -13.1078 l 0.1706 -6.7254 l 0.2711 -6.2607 c 0.1272 -2.5995 0.3026 -4.6347 0.534 -6.0839 l 0.6567 -4.6346 c 0.2963 -1.6373 0.682 -2.8098 1.1496 -3.54 c 0.468 -0.7298 0.9894 -1.0951 1.5645 -1.0951 c 0.3538 0 0.7154 0.1439 1.084 0.4317 c 0.3689 0.2874 0.633 0.6527 0.7921 1.0951 c 0.314 0.8736 0.2974 3.0419 -0.059 6.4821 l -1.342 10.8513 c -0.5148 3.8603 -0.7276 8.1301 -0.6382 12.8089 c 0.089 4.6791 0.6645 8.4953 1.7343 11.4709 c 0.3657 1.0176 0.6464 1.7366 0.8418 2.1571 c 0.1954 0.4202 0.4595 0.7851 0.7921 1.0951 c 0.3327 0.3096 0.7421 0.4643 1.229 0.4643 c 1.4599 0 2.8665 -0.9178 4.2196 -2.7542 c 1.3528 -1.8363 2.1765 -4.1922 2.4698 -7.0684 l 1.0109 0.5974 c -0.0742 3.3627 -0.9512 6.1832 -2.6322 8.462 c -1.6806 2.2788 -3.6716 3.418 -5.9722 3.418 c -1.5045 0 -2.7854 -0.4866 -3.8433 -1.46 c -1.058 -0.9734 -1.8334 -2.146 -2.3266 -3.5177 c -0.5407 -1.5041 -0.9712 -3.8715 -1.292 -7.1014 c -0.9312 3.7168 -2.2028 6.7031 -3.8136 8.96 c -1.6117 2.2565 -3.3961 3.3846 -5.3541 3.3846 c -1.2608 0 -2.571 -0.4754 -3.9201 -1.427 c -1.3483 -0.9512 -2.3433 -2.334 -2.9956 -4.1481 z m 48.348 1.1948 c -0.9423 -2.6214 -1.0703 -5.5306 -0.3946 -8.7275 c 0.6912 -3.1858 2.0681 -5.94 4.1463 -8.2518 c 2.0889 -2.3121 4.4959 -3.4624 7.2282 -3.4624 c 1.7366 0 3.3679 0.4758 4.8676 1.4158 c 1.4992 0.9405 2.5079 2.146 3.0408 3.6282 c 0.6842 1.9028 -0.0579 2.854 -2.2261 2.854 c -0.0649 -0.7966 -0.2329 -1.5709 -0.5032 -2.3229 c -0.8908 -2.4779 -2.4423 -3.7165 -4.6436 -3.7165 c -1.9357 0 -3.5915 1.1169 -4.9784 3.3516 c -1.3758 2.2342 -2.2265 4.8226 -2.5621 7.7652 c -0.3252 2.9422 -0.1034 5.4972 0.676 7.6654 c 0.6204 1.7255 1.5282 2.5885 2.7227 2.5885 c 0.7965 0 1.5901 -0.3761 2.3707 -1.1285 c 0.7917 -0.752 1.4629 -1.5927 2.0136 -2.522 c 0.5507 -0.9289 1.1411 -2.179 1.793 -3.7499 c 0.6527 -1.5704 1.1151 -2.7764 1.3769 -3.6171 l 1.1485 -3.4509 c 1.9034 0.3096 2.9981 0.8625 3.2844 1.6591 c 0.1272 0.3541 -0.0482 1.6813 -0.5262 3.982 c -0.478 2.301 -0.5025 4.0487 -0.073 5.2432 c 0.2707 0.7524 0.7012 1.4269 1.3031 2.0243 c 0.6018 0.5974 1.2953 0.896 2.0696 0.896 c 1.283 0 2.568 -0.9182 3.8548 -2.7542 c 1.2868 -1.8364 2.2847 -4.4136 2.9944 -7.7322 l 0.9023 0.6638 c -0.1068 3.5177 -1.0087 6.3935 -2.7015 8.6389 c -1.6925 2.2457 -3.7577 3.3627 -6.18 3.3627 c -1.5267 0 -2.8583 -0.4424 -3.9879 -1.3384 c -1.1295 -0.8959 -1.9242 -1.9687 -2.3777 -3.2299 c -0.191 -0.531 -0.3553 -1.1726 -0.4929 -1.9246 c -1.0528 2.6103 -2.1456 4.5241 -3.2789 5.7408 c -1.1332 1.2167 -2.4742 1.8253 -4.0228 1.8253 c -1.4603 0 -2.8068 -0.4536 -4.0398 -1.3606 c -1.233 -0.9071 -2.1679 -2.2454 -2.8042 -4.0154 z m 29.8749 -2.1901 c -0.9067 -2.522 -1.3057 -5.6634 -1.1978 -9.4243 c 0.1083 -3.761 0.649 -5.6415 1.6224 -5.6415 c 0.8407 0 1.8182 0.4424 2.9326 1.3272 c -0.4043 1.4603 -0.626 3.5511 -0.6653 6.2719 c -0.0393 2.7211 0.2985 5.0774 1.0142 7.0684 c 1.0658 2.9644 2.3952 4.4466 3.9879 4.4466 c 0.5756 0 1.1044 -0.221 1.5864 -0.6637 c 0.4825 -0.4424 0.9008 -1.0951 1.2542 -1.9577 c 0.3538 -0.8629 0.6738 -1.7258 0.9612 -2.5884 c 0.287 -0.8629 0.5321 -1.9357 0.7342 -3.2188 l 0.5567 -3.2522 l 0.4472 -3.1858 c 0.1027 -1.2831 0.2069 -2.1015 0.29 -2.4556 c 2.2339 0.3982 3.491 0.9734 3.7617 1.7258 c 0.0478 0.1328 0.005 1.0287 -0.1398 2.6878 c -0.1446 1.6591 -0.1869 3.573 -0.1265 5.7408 c 0.0605 2.1683 0.316 3.8938 0.7773 5.1769 c 0.6044 1.6813 1.6257 2.522 3.0638 2.522 c 1.5041 0 2.9863 -0.9846 4.4466 -2.9533 c 1.4604 -1.9691 2.3838 -4.5687 2.7713 -7.7986 l 1.0776 0.5974 c -0.1431 3.5396 -1.0735 6.4599 -2.7901 8.7609 c -1.7173 2.3006 -3.7595 3.451 -6.1377 3.451 c -3.086 0 -5.2231 -1.6373 -6.4001 -4.9113 c -0.3182 -0.8848 -0.5611 -1.991 -0.7287 -3.3182 c -1.1248 5.4864 -3.0368 8.2295 -5.7357 8.2295 c -1.4599 0 -2.8854 -0.6416 -4.276 -1.9247 c -1.3903 -1.283 -2.4193 -2.8539 -3.0876 -4.7121 z m 29.1856 1.0617 c -1.3677 -3.8051 -2.0014 -9.1366 -1.9005 -15.9947 c -1.1255 -0.1769 -1.9858 -0.3542 -2.5799 -0.5311 l -0.4294 -1.1944 c 1.6561 0.1769 2.6614 0.2655 3.0152 0.2655 c 0.1335 -5.0441 0.6534 -9.4136 1.5593 -13.1082 c 0.9067 -3.6942 2.0011 -5.5417 3.2845 -5.5417 c 0.3538 0 0.7224 0.1328 1.1055 0.3983 c 0.3826 0.2655 0.6537 0.6193 0.8132 1.0621 c 0.2384 0.6634 0.2206 1.8137 -0.0538 3.4509 c -0.2744 1.6372 -0.7035 3.8274 -1.2879 6.5704 c -0.5848 2.7434 -0.996 5.1991 -1.2341 7.367 h 2.4556 c 3.6724 0 6.7881 -0.1324 9.3476 -0.3979 l 0.4294 1.1944 c -4.4993 0.531 -8.1868 0.7966 -11.063 0.7966 c -0.1328 0 -0.2433 0 -0.3315 0 h -0.9957 c -0.445 5.5305 0.0638 10.3313 1.5271 14.4019 c 0.7157 1.991 1.5048 3.385 2.3659 4.1812 c 0.8618 0.7965 1.9561 1.1948 3.2837 1.1948 c 2.2565 0 4.1288 -1.0068 5.6173 -3.0201 c 1.4889 -2.0128 2.4594 -4.7893 2.9126 -8.3292 l 1.1013 0.6638 c -0.2529 3.8496 -1.332 7.002 -3.237 9.4577 c -1.9046 2.4556 -4.3836 3.6834 -7.4362 3.6834 c -3.9379 0 -6.6943 -2.1901 -8.2692 -6.5707 z m 18.3777 -0.3872 c -1.018 -2.8316 -1.2282 -5.6633 -0.6234 -8.4727 c 0.6048 -2.8098 1.8363 -4.2145 3.6946 -4.2145 c 0.3983 0 0.903 0.1105 1.5133 0.3319 c -0.5862 0.7079 -0.9497 2.4664 -1.0898 5.2761 c -0.1402 2.8095 0.076 5.0107 0.6486 6.6038 c 0.9385 2.6103 2.2038 3.9156 3.7969 3.9156 c 1.9465 0 3.6616 -1.8141 5.1449 -5.4423 c -1.6046 -1.0176 -3.0441 -2.3448 -4.3187 -3.982 c -1.2742 -1.6372 -2.2298 -3.3404 -2.8661 -5.1104 c -0.8348 -2.3229 -0.9605 -4.3028 -0.3805 -5.9511 c 0.5803 -1.648 1.8634 -2.4776 3.8548 -2.4776 c 3.0527 0 5.1998 1.7255 6.4406 5.1765 c 1.2408 3.4513 1.174 7.3892 -0.1995 11.8139 c 0.9552 0.4424 1.8753 0.6635 2.7604 0.6635 c 1.2831 0 2.4709 -0.3872 3.5645 -1.1615 c 1.0932 -0.7743 1.6995 -1.9799 1.8189 -3.6171 l 1.035 0.6638 c -0.1409 1.9469 -0.8184 3.385 -2.0329 4.3139 c -1.2145 0.9293 -2.6407 1.394 -4.2775 1.394 c -1.1949 0 -2.3359 -0.2214 -3.4243 -0.6638 c -1.8694 4.6457 -4.4196 6.9686 -7.6495 6.9686 c -1.8141 0 -3.3401 -0.5529 -4.5783 -1.6591 c -1.2382 -1.1062 -2.1798 -2.5554 -2.832 -4.3695 z m 8.8261 -10.8954 c 1.0814 3.0086 2.6923 5.3978 4.8331 7.1678 c 1.1981 -3.8051 1.2571 -7.2119 0.1754 -10.2208 c -0.8908 -2.4776 -1.9999 -3.7165 -3.3275 -3.7165 c -0.9734 0 -1.6598 0.6745 -2.0596 2.024 c -0.3998 1.3498 -0.2737 2.9314 0.3786 4.7455 z m 15.3024 15.2427 c -0.0638 -0.1769 -0.0983 -1.3495 -0.1183 -3.5285 c -0.0241 -2.1901 -0.1517 -4.668 -0.3946 -7.4667 c -0.2388 -2.7875 -0.6741 -5.044 -1.2983 -6.7806 c 0.5025 -0.9401 1.3532 -1.4047 2.548 -1.4047 c 1.1945 0 1.9988 0.5751 2.4164 1.7366 c 0.4294 1.1948 0.7568 3.7057 0.9905 7.5549 c 0.9152 -3.4843 2.1641 -6.471 3.7546 -8.9708 c 1.6013 -2.4998 3.4747 -3.7498 5.643 -3.7498 c 2.3229 0 4.1043 1.7255 5.3414 5.1657 c 1.0339 2.8761 1.4915 5.9952 1.3658 9.369 c 1.3224 -6.8136 3.781 -10.2208 7.3762 -10.2208 c 2.5109 0 4.262 1.3939 5.2681 4.1922 c 0.4494 1.2501 0.755 3.2081 0.9129 5.8629 c 0.1576 2.6547 0.3957 4.4244 0.7176 5.3203 c 0.5451 1.5156 1.4615 2.2787 2.7557 2.2787 c 2.743 0 4.4388 -3.5284 5.0874 -10.5857 l 1.1347 0.94 c -0.0578 3.2856 -0.6667 6.0839 -1.823 8.4068 c -1.1521 2.334 -2.9247 3.4955 -5.3251 3.4955 c -1.4822 0 -2.7735 -0.4536 -3.8585 -1.3495 c -1.0858 -0.8959 -1.8753 -2.0463 -2.3804 -3.4513 c -0.4175 -1.1615 -0.686 -2.8317 -0.8095 -5.0218 c -0.1239 -2.1902 -0.3289 -3.6835 -0.6193 -4.4908 c -0.5766 -1.6042 -1.5085 -2.4115 -2.7916 -2.4115 c -1.0065 0 -1.8431 0.719 -2.4835 2.1679 c -0.6515 1.4492 -1.513 4.0376 -2.5914 7.7763 c -0.2336 0.7965 -0.5518 2.865 -0.9326 6.2055 c -0.712 -0.0111 -1.493 -0.1216 -2.3548 -0.3649 c -0.8581 -0.2325 -1.3565 -0.5422 -1.4955 -0.9293 c -0.0319 -0.0886 -0.0942 -2.2013 -0.1921 -6.3494 c -0.0976 -4.1477 -0.4821 -7.1567 -1.1541 -9.026 c -0.5922 -1.648 -1.4399 -2.4668 -2.5461 -2.4668 c -1.8912 0 -3.6983 2.1126 -5.4204 6.3383 c -1.7214 4.2256 -2.5807 8.6058 -2.584 13.1189 c -0.6745 0 -1.5048 -0.155 -2.4968 -0.4536 c -0.9816 -0.2985 -1.5352 -0.6081 -1.6424 -0.907 z m 42.4535 -2.8317 c -0.9422 -2.6214 -1.0702 -5.5306 -0.3945 -8.7275 c 0.6912 -3.1858 2.0681 -5.94 4.1462 -8.2518 c 2.0889 -2.3121 4.496 -3.4624 7.2283 -3.4624 c 1.7366 0 3.3679 0.4758 4.8675 1.4158 c 1.4993 0.9405 2.508 2.146 3.0408 3.6282 c 0.6842 1.9028 -0.0578 2.854 -2.2261 2.854 c -0.0648 -0.7966 -0.2328 -1.5709 -0.5032 -2.3229 c -0.8907 -2.4779 -2.4423 -3.7165 -4.6435 -3.7165 c -1.9358 0 -3.5915 1.1169 -4.9784 3.3516 c -1.3758 2.2342 -2.2265 4.8226 -2.5621 7.7652 c -0.3252 2.9422 -0.1035 5.4972 0.676 7.6654 c 0.6204 1.7255 1.5282 2.5885 2.7227 2.5885 c 0.7965 0 1.5901 -0.3761 2.3707 -1.1285 c 0.7917 -0.752 1.4629 -1.5927 2.0136 -2.522 c 0.5507 -0.9289 1.141 -2.179 1.793 -3.7499 c 0.6526 -1.5704 1.1151 -2.7764 1.3769 -3.6171 l 1.1484 -3.4509 c 1.9035 0.3096 2.9982 0.8625 3.2845 1.6591 c 0.1272 0.3541 -0.0482 1.6813 -0.5262 3.982 c -0.478 2.301 -0.5025 4.0487 -0.0731 5.2432 c 0.2707 0.7524 0.7013 1.4269 1.3031 2.0243 c 0.6019 0.5974 1.2953 0.896 2.0696 0.896 c 1.2831 0 2.568 -0.9182 3.8548 -2.7542 c 1.2868 -1.8364 2.2847 -4.4136 2.9945 -7.7322 l 0.9022 0.6638 c -0.1068 3.5177 -1.0086 6.3935 -2.7015 8.6389 c -1.6925 2.2457 -3.7576 3.3627 -6.1799 3.3627 c -1.5267 0 -2.8584 -0.4424 -3.9879 -1.3384 c -1.1296 -0.8959 -1.9243 -1.9687 -2.3778 -3.2299 c -0.191 -0.531 -0.3552 -1.1726 -0.4928 -1.9246 c -1.0528 2.6103 -2.1456 4.5241 -3.2789 5.7408 c -1.1333 1.2167 -2.4742 1.8253 -4.0228 1.8253 c -1.4603 0 -2.8068 -0.4536 -4.0398 -1.3606 c -1.233 -0.9071 -2.1679 -2.2454 -2.8043 -4.0154 z m 29.991 -1.1284 c -1.3676 -3.8051 -2.0013 -9.1366 -1.9005 -15.9947 c -1.1254 -0.1769 -1.9858 -0.3542 -2.5798 -0.5311 l -0.4295 -1.1944 c 1.6562 0.1769 2.6615 0.2655 3.0153 0.2655 c 0.1335 -5.0441 0.6534 -9.4136 1.5593 -13.1082 c 0.9067 -3.6942 2.001 -5.5417 3.2845 -5.5417 c 0.3537 0 0.7224 0.1328 1.1054 0.3983 c 0.3827 0.2655 0.6538 0.6193 0.8133 1.0621 c 0.2384 0.6634 0.2206 1.8137 -0.0538 3.4509 c -0.2744 1.6372 -0.7035 3.8274 -1.2879 6.5704 c -0.5848 2.7434 -0.9961 5.1991 -1.2341 7.367 h 2.4556 c 3.6724 0 6.7881 -0.1324 9.3476 -0.3979 l 0.4294 1.1944 c -4.4993 0.531 -8.1869 0.7966 -11.063 0.7966 c -0.1328 0 -0.2433 0 -0.3316 0 h -0.9956 c -0.445 5.5305 0.0637 10.3313 1.527 14.4019 c 0.7157 1.991 1.5049 3.385 2.3659 4.1812 c 0.8619 0.7965 1.9562 1.1948 3.2838 1.1948 c 2.2565 0 4.1288 -1.0068 5.6173 -3.0201 c 1.4889 -2.0128 2.4594 -4.7893 2.9125 -8.3292 l 1.1014 0.6638 c -0.2529 3.8496 -1.332 7.002 -3.237 9.4577 c -1.9046 2.4556 -4.3836 3.6834 -7.4363 3.6834 c -3.9378 0 -6.6942 -2.1901 -8.2692 -6.5707 z m 18.7296 -0.3316 c -0.6204 -1.7258 -0.9908 -4.0487 -1.1113 -6.969 c -0.1209 -2.9199 0.1557 -5.597 0.8295 -8.0304 c 0.6734 -2.4337 1.7184 -3.6504 3.1343 -3.6504 c 0.9734 0 1.6353 0.4869 1.9854 1.4603 c 0.1947 0.5418 0.0568 1.7585 -0.4098 3.6612 c -0.4624 1.9135 -0.8373 4.0707 -1.1165 6.4929 c -0.2796 2.4227 -0.0957 4.5353 0.5607 6.3605 c 0.5566 1.5486 1.1933 2.6107 1.9009 3.1636 c 0.7075 0.5529 1.6364 0.8295 2.7868 0.8295 c 3.4513 0 5.6373 -3.3957 6.5622 -10.1763 l 0.8358 0.6634 c 0.0935 3.7057 -0.6938 6.5927 -2.3618 8.6611 c -1.6676 2.0685 -3.827 3.1084 -6.4817 3.1084 c -1.6373 0 -3.085 -0.5199 -4.3436 -1.5598 c -1.2586 -1.0394 -2.1823 -2.3781 -2.7709 -4.015 z m 0.6427 -27.0121 c -0.3182 -0.8851 -0.0734 -1.6813 0.7339 -2.3892 c 0.8073 -0.7083 1.764 -1.0621 2.8702 -1.0621 c 1.46 0 2.429 0.6638 2.9058 1.991 c 0.3182 0.8848 0.1632 1.7147 -0.4657 2.489 c -0.6286 0.7743 -1.4741 1.1615 -2.5358 1.1615 c -1.8141 0 -2.9837 -0.7302 -3.5084 -2.1902 z m 15.0001 26.9565 c -1.0179 -2.8316 -1.2282 -5.6633 -0.6233 -8.4727 c 0.6048 -2.8098 1.8363 -4.2145 3.6946 -4.2145 c 0.3982 0 0.9029 0.1105 1.5133 0.3319 c -0.5863 0.7079 -0.9497 2.4664 -1.0898 5.2761 c -0.1402 2.8095 0.076 5.0107 0.6485 6.6038 c 0.9386 2.6103 2.2039 3.9156 3.797 3.9156 c 1.9465 0 3.6616 -1.8141 5.1449 -5.4423 c -1.6046 -1.0176 -3.0442 -2.3448 -4.3187 -3.982 c -1.2742 -1.6372 -2.2298 -3.3404 -2.8662 -5.1104 c -0.8347 -2.3229 -0.9604 -4.3028 -0.3804 -5.9511 c 0.5803 -1.648 1.8634 -2.4776 3.8548 -2.4776 c 3.0526 0 5.1998 1.7255 6.4406 5.1765 c 1.2408 3.4513 1.174 7.3892 -0.1995 11.8139 c 0.9552 0.4424 1.8753 0.6635 2.7604 0.6635 c 1.2831 0 2.4709 -0.3872 3.5645 -1.1615 c 1.0932 -0.7743 1.6995 -1.9799 1.8189 -3.6171 l 1.035 0.6638 c -0.1409 1.9469 -0.8184 3.385 -2.0329 4.3139 c -1.2145 0.9293 -2.6407 1.394 -4.2776 1.394 c -1.1948 0 -2.3358 -0.2214 -3.4242 -0.6638 c -1.8694 4.6457 -4.4196 6.9686 -7.6495 6.9686 c -1.8141 0 -3.3401 -0.5529 -4.5783 -1.6591 c -1.2382 -1.1062 -2.1798 -2.5554 -2.8321 -4.3695 z m 8.8262 -10.8954 c 1.0813 3.0086 2.6922 5.3978 4.8331 7.1678 c 1.1981 -3.8051 1.2571 -7.2119 0.1754 -10.2208 c -0.8908 -2.4776 -1.9999 -3.7165 -3.3275 -3.7165 c -0.9735 0 -1.6599 0.6745 -2.0596 2.024 c -0.3998 1.3498 -0.2737 2.9314 0.3786 4.7455 z m 14.7769 14.3356 c -0.0478 -0.1327 -0.0345 -1.1725 0.0401 -3.1194 c 0.0745 -1.9465 0.0448 -4.2141 -0.0894 -6.8025 c -0.1343 -2.5884 -0.5036 -4.7233 -1.1081 -6.4047 c 0.5066 -0.9293 1.3573 -1.3939 2.5521 -1.3939 c 1.1944 0 1.9988 0.5751 2.4123 1.7258 c 0.5406 1.5041 0.8825 4.4244 1.0257 8.7605 c 2.2888 -7.787 5.4905 -11.6808 9.6053 -11.6808 c 1.5708 0 2.987 0.5863 4.2386 1.7589 c 1.2512 1.1725 2.1653 2.5773 2.7538 4.2141 c 0.5247 1.4603 0.7505 3.3186 0.6767 5.5751 c -0.0734 2.2565 0.0723 3.8937 0.4384 4.9113 c 0.6044 1.6813 1.5593 2.522 2.8535 2.522 c 2.7434 0 4.5998 -3.451 5.5695 -10.3536 l 1.0402 0.8629 c -0.4973 7.4775 -2.9696 11.2162 -7.4166 11.2162 c -1.5041 0 -2.7827 -0.3872 -3.8574 -1.1615 c -1.0747 -0.7743 -1.843 -1.8029 -2.304 -3.086 c -0.3182 -0.8848 -0.5344 -2.3782 -0.6482 -4.4797 c -0.1142 -2.1018 -0.3619 -3.6834 -0.7439 -4.7455 c -0.7795 -2.1683 -2.054 -3.2522 -3.824 -3.2522 c -1.0617 0 -2.0496 0.4205 -2.9644 1.2612 c -0.9145 0.8407 -1.6614 1.7477 -2.2406 2.7212 c -0.5789 0.9734 -1.1655 2.3892 -1.7581 4.2475 c -0.593 1.8582 -0.9961 3.2299 -1.2086 4.1147 l -1.0001 4.0488 c -1.6372 0 -2.9848 -0.4869 -4.0428 -1.4604 z m 33.7423 -0.6638 c -0.2547 -0.7079 -0.0723 -1.3383 0.5366 -1.8912 c 0.6086 -0.5533 1.3391 -0.8296 2.2017 -0.8296 c 1.1062 0 1.85 0.5307 2.232 1.5928 c 0.2388 0.6638 0.119 1.3164 -0.3471 1.958 c -0.4773 0.6415 -1.1251 0.9623 -1.9328 0.9623 c -1.3606 0 -2.2609 -0.5974 -2.6904 -1.7923 z m 14.2029 0 c -0.2548 -0.7079 -0.0723 -1.3383 0.5366 -1.8912 c 0.6085 -0.5533 1.3391 -0.8296 2.2016 -0.8296 c 1.1062 0 1.8501 0.5307 2.2321 1.5928 c 0.2388 0.6638 0.119 1.3164 -0.3471 1.958 c -0.4773 0.6415 -1.1251 0.9623 -1.9328 0.9623 c -1.3606 0 -2.261 -0.5974 -2.6904 -1.7923 z m 14.2029 0 c -0.2548 -0.7079 -0.0724 -1.3383 0.5365 -1.8912 c 0.6086 -0.5533 1.3391 -0.8296 2.2017 -0.8296 c 1.1062 0 1.8501 0.5307 2.232 1.5928 c 0.2388 0.6638 0.119 1.3164 -0.3471 1.958 c -0.4772 0.6415 -1.1251 0.9623 -1.9328 0.9623 c -1.3605 0 -2.2609 -0.5974 -2.6903 -1.7923 z" stroke-linecap="round" />
</g>
		<g transform="matrix(0.36 0 0 0.36 -110.01 9.94)"  >
<linearGradient id="SVGID_119" gradientUnits="objectBoundingBox" gradientTransform="matrix(-0.84 -0.54 0.54 -0.84 85.31 312.28)"  x1="0" y1="0" x2="0" y2="1">
<stop offset="0%" style="stop-color:rgb(35,104,182);stop-opacity: 1"/>
<stop offset="28.000000000000004%" style="stop-color:rgb(40,102,179);stop-opacity: 1"/>
<stop offset="63%" style="stop-color:rgb(61,67,153);stop-opacity: 1"/>
<stop offset="100%" style="stop-color:rgb(66,62,147);stop-opacity: 1"/>
</linearGradient>
<path style="stroke: none; stroke-width: 1; stroke-dasharray: none; stroke-linecap: butt; stroke-dashoffset: 0; stroke-linejoin: miter; stroke-miterlimit: 4; fill: url(#SVGID_119); fill-rule: nonzero; opacity: 1;"  transform=" translate(-84.66, -311.09)" d="m 83.0344 366.638 c 0 0 -14.9523 -9.858 -17.2043 -13.8667 c -2.252 -4.0088 -1.295 -7.0248 -1.295 -7.0248 c 0 0 10.1812 -52.1203 18.5838 -89.8969 c 15.989 -1.6067 13.2815 3.4022 21.8656 3.5979 c -5.6866 23.997 -16.0449 71.8418 -21.9501 107.1905 z" stroke-linecap="round" />
</g>
		<g transform="matrix(0.36 0 0 0.36 -91.33 -10.61)"  >
<linearGradient id="SVGID_120" gradientUnits="objectBoundingBox" gradientTransform="matrix(1 0.03 -0.03 1 136.59 253.98)"  x1="0" y1="0" x2="0" y2="1">
<stop offset="0%" style="stop-color:rgb(250,44,44);stop-opacity: 1"/>
<stop offset="32%" style="stop-color:rgb(236,50,55);stop-opacity: 1"/>
<stop offset="100%" style="stop-color:rgb(153,47,47);stop-opacity: 1"/>
</linearGradient>
<path style="stroke: none; stroke-width: 1; stroke-dasharray: none; stroke-linecap: butt; stroke-dashoffset: 0; stroke-linejoin: miter; stroke-miterlimit: 4; fill: url(#SVGID_120); fill-rule: nonzero; opacity: 1;"  transform=" translate(-136.57, -254)" d="m 43.1189 259.8952 c 0 0 8.2418 -14.8155 11.7739 -17.7592 c 3.5322 -2.9436 6.672 -2.5513 6.672 -2.5513 c 0 0 121.5664 0.4906 163.9525 7.7511 c 13.5398 2.3544 -7.75 21.0952 -7.75 21.0952 c 0 0 -67.5036 -10.4004 -174.6484 -8.5358 z" stroke-linecap="round" />
</g>
		<g transform="matrix(0.36 0 0 0.36 -87.38 0)"  >
<linearGradient id="SVGID_121" gradientUnits="objectBoundingBox" gradientTransform="matrix(-0.84 -0.54 0.54 -0.84 148.17 284.67)"  x1="0" y1="0" x2="0" y2="1">
<stop offset="0%" style="stop-color:rgb(0,173,239);stop-opacity: 1"/>
<stop offset="50%" style="stop-color:rgb(9,151,225);stop-opacity: 1"/>
<stop offset="72%" style="stop-color:rgb(17,121,206);stop-opacity: 1"/>
<stop offset="100%" style="stop-color:rgb(9,96,173);stop-opacity: 1"/>
</linearGradient>
<path style="stroke: none; stroke-width: 1; stroke-dasharray: none; stroke-linecap: butt; stroke-dashoffset: 0; stroke-linejoin: miter; stroke-miterlimit: 4; fill: url(#SVGID_121); fill-rule: nonzero; opacity: 1;"  transform=" translate(-147.52, -283.47)" d="m 126.2658 399.1633 c 0 0 -18.7114 -10.1308 -21.6715 -15.4 c -2.9601 -5.2692 -1.7022 -9.2336 -1.7022 -9.2336 c 0 0 33.5891 -151.8491 58.0313 -201.0174 c 6.2801 -16.9373 30.9424 8.8791 31.4581 11.0381 c 1.2514 2.7958 -34.664 77.6451 -66.1157 214.6129 z" stroke-linecap="round" />
</g>
		<g transform="matrix(0.36 0 0 0.36 -76.18 7.34)"  >
<linearGradient id="SVGID_122" gradientUnits="objectBoundingBox" gradientTransform="matrix(-0.8 -0.6 0.6 -0.8 179.24 305.06)"  x1="0" y1="0" x2="0" y2="1">
<stop offset="0%" style="stop-color:rgb(140,60,31);stop-opacity: 1"/>
<stop offset="76%" style="stop-color:rgb(241,131,52);stop-opacity: 1"/>
<stop offset="100%" style="stop-color:rgb(245,134,52);stop-opacity: 1"/>
</linearGradient>
<path style="stroke: none; stroke-width: 1; stroke-dasharray: none; stroke-linecap: butt; stroke-dashoffset: 0; stroke-linejoin: miter; stroke-miterlimit: 4; fill: url(#SVGID_122); fill-rule: nonzero; opacity: 1;"  transform=" translate(-178.64, -303.86)" d="m 100.2849 279.9652 c 50.8453 2.8628 120.5177 7.7815 155.3001 14.6436 c 17.8517 2.7624 -2.5055 32.0936 -4.5171 33.031 c -2.0114 1.4429 -58.2567 -10.5739 -156.6558 -20.137 c 2.6154 -13.1259 3.5363 -16.7419 5.8728 -27.5376 z" stroke-linecap="round" />
</g>
</g>
</g>
</g>
</g>
</svg>