<svg xmlns="http://www.w3.org/2000/svg" width="19.455" height="19.455" viewBox="0 0 19.455 19.455">
  <g id="Firewall" transform="translate(-108 -572)">
    <g id="slider" transform="translate(108 572)">
      <path id="Vector" d="M6.754,15.455H2.7A2.8,2.8,0,0,1,0,12.364V3.091A2.8,2.8,0,0,1,2.7,0H6.754a2.8,2.8,0,0,1,2.7,3.091v9.273A2.8,2.8,0,0,1,6.754,15.455Z" transform="translate(5 2)" fill="none" stroke="#14213d" stroke-linecap="round" stroke-linejoin="round" stroke-width="1.5"/>
      <path id="Vector-2" data-name="Vector" d="M0,0H9.455" transform="translate(5 12.978)" fill="none" stroke="#14213d" stroke-linecap="round" stroke-linejoin="round" stroke-width="1.5"/>
      <path id="Vector-3" data-name="Vector" d="M0,0V11.455" transform="translate(2 4)" fill="none" stroke="#14213d" stroke-linecap="round" stroke-linejoin="round" stroke-width="1.5"/>
      <path id="Vector-4" data-name="Vector" d="M0,0V11.455" transform="translate(17.455 4)" fill="none" stroke="#14213d" stroke-linecap="round" stroke-linejoin="round" stroke-width="1.5"/>
      <path id="Vector-5" data-name="Vector" d="M0,0H19.455V19.455H0Z" fill="none" opacity="0"/>
    </g>
  </g>
</svg>
