<svg xmlns="http://www.w3.org/2000/svg" width="41.473" height="68.856" viewBox="0 0 41.473 68.856">
  <g id="Login_silbo" data-name="Login silbo" transform="translate(-80.34 -51.72)">
    <g id="Group_19129" data-name="Group 19129" transform="translate(80.34 108.93)">
      <g id="Group_19128" data-name="Group 19128">
        <g id="Group_19127" data-name="Group 19127">
          <g id="Group_19126" data-name="Group 19126">
            <g id="Group_19124" data-name="Group 19124" transform="translate(0.725)">
              <g id="Group_19123" data-name="Group 19123">
                <path id="Path_108" data-name="Path 108" d="M83.5,308.078l.686-1.541a4.647,4.647,0,0,0,2.438.727c.865,0,1.2-.243,1.2-.6,0-1.172-4.2-.316-4.2-3.059,0-1.319,1.076-2.394,3.27-2.394a5.521,5.521,0,0,1,2.678.644l-.644,1.55a4.351,4.351,0,0,0-2.048-.569c-.876,0-1.192.3-1.192.665,0,1.128,4.187.284,4.187,3.006,0,1.286-1.076,2.385-3.27,2.385A5.84,5.84,0,0,1,83.5,308.078Z" transform="translate(-83.5 -301.208)" fill="#010101"/>
                <path id="Path_109" data-name="Path 109" d="M122.41,301.85H124.5v7.384H122.41Z" transform="translate(-113.487 -301.701)" fill="#010101"/>
                <path id="Path_110" data-name="Path 110" d="M144.91,301.85H147v5.728h3.525v1.656h-5.611V301.85Z" transform="translate(-130.828 -301.701)" fill="#010101"/>
                <path id="Path_111" data-name="Path 111" d="M186.886,307.209c0,1.277-1.055,2.025-3.038,2.025H179.86V301.85h3.777c1.94,0,2.892.791,2.892,1.931a1.741,1.741,0,0,1-.991,1.6A1.865,1.865,0,0,1,186.886,307.209Zm-4.958-3.85v1.424h1.436c.7,0,1.055-.243,1.055-.718s-.358-.706-1.055-.706Zm2.848,3.619c0-.507-.381-.75-1.1-.75h-1.752v1.5h1.752C184.4,307.727,184.777,307.484,184.777,306.978Z" transform="translate(-157.763 -301.701)" fill="#010101"/>
                <path id="Path_112" data-name="Path 112" d="M220.48,305.041a4.114,4.114,0,1,1,4.1,3.841A3.863,3.863,0,0,1,220.48,305.041Zm6.1,0a2,2,0,1,0-2,2.11A1.977,1.977,0,0,0,226.578,305.041Z" transform="translate(-189.068 -301.2)" fill="#010101"/>
              </g>
            </g>
            <g id="Group_19125" data-name="Group 19125" transform="translate(0 8.73)">
              <path id="Path_113" data-name="Path 113" d="M82.489,341.99h-1.52l-.328.729h-.3l1.247-2.729h.284l1.247,2.729h-.3Zm-.105-.234-.656-1.465-.656,1.465Z" transform="translate(-80.34 -339.825)" fill="#228bcc"/>
              <path id="Path_114" data-name="Path 114" d="M96.05,343.751v1.188h-.277v-1.163a.574.574,0,0,0-.617-.656.673.673,0,0,0-.718.741v1.076H94.16v-2.05h.266v.378a.862.862,0,0,1,.78-.394A.788.788,0,0,1,96.05,343.751Z" transform="translate(-90.991 -342.044)" fill="#228bcc"/>
              <path id="Path_115" data-name="Path 115" d="M110.39,339.99h.289v2.729h-.289Z" transform="translate(-103.499 -339.825)" fill="#228bcc"/>
              <path id="Path_116" data-name="Path 116" d="M117.15,343.751v1.188h-.277v-1.163a.574.574,0,0,0-.617-.656.673.673,0,0,0-.718.741v1.076h-.277v-2.05h.266v.378a.862.862,0,0,1,.78-.394A.789.789,0,0,1,117.15,343.751Z" transform="translate(-107.252 -342.044)" fill="#228bcc"/>
              <path id="Path_117" data-name="Path 117" d="M127.055,342.95l-.913,2.05h-.284l-.908-2.05h.289l.768,1.747.775-1.747Z" transform="translate(-114.72 -342.106)" fill="#228bcc"/>
              <path id="Path_118" data-name="Path 118" d="M136.67,344h-1.715a.759.759,0,0,0,.807.713.81.81,0,0,0,.628-.268l.156.179a1.084,1.084,0,0,1-1.867-.711.988.988,0,0,1,1-1.041.975.975,0,0,1,.993,1.041C136.673,343.936,136.67,343.968,136.67,344Zm-1.715-.206h1.454a.728.728,0,0,0-1.454,0Z" transform="translate(-122.219 -342.044)" fill="#228bcc"/>
              <path id="Path_119" data-name="Path 119" d="M147.72,343.751v1.188h-.277v-1.163a.574.574,0,0,0-.617-.656.673.673,0,0,0-.718.741v1.076h-.277v-2.05h.266v.378a.861.861,0,0,1,.78-.394A.789.789,0,0,1,147.72,343.751Z" transform="translate(-130.812 -342.044)" fill="#228bcc"/>
              <path id="Path_120" data-name="Path 120" d="M158.558,339.272v2.892h-.266v-.406a.885.885,0,0,1-.791.424,1.044,1.044,0,0,1,0-2.087.894.894,0,0,1,.78.406V339.27h.277Zm-.273,1.867a.762.762,0,1,0-.759.8A.749.749,0,0,0,158.285,341.139Z" transform="translate(-139.02 -339.27)" fill="#228bcc"/>
              <path id="Path_121" data-name="Path 121" d="M168.64,339.475a.2.2,0,0,1,.2-.195.2.2,0,0,1,.2.19.2.2,0,0,1-.4,0Zm.062.647h.277v2.05H168.7Z" transform="translate(-148.391 -339.278)" fill="#228bcc"/>
              <path id="Path_122" data-name="Path 122" d="M172.24,344.712l.124-.218a1.237,1.237,0,0,0,.729.229c.39,0,.55-.133.55-.335,0-.534-1.33-.112-1.33-.924,0-.335.289-.585.812-.585a1.387,1.387,0,0,1,.725.19l-.122.222a1.058,1.058,0,0,0-.6-.177c-.372,0-.534.144-.534.339,0,.553,1.33.135,1.33.924,0,.355-.312.585-.846.585A1.354,1.354,0,0,1,172.24,344.712Z" transform="translate(-151.166 -342.052)" fill="#228bcc"/>
              <path id="Path_123" data-name="Path 123" d="M188.637,340.926c0,.58-.422.931-1.115.931h-.734v.862H186.5V339.99h1.02C188.215,339.99,188.637,340.341,188.637,340.926Zm-.289,0c0-.436-.289-.686-.835-.686h-.725V341.6h.725C188.059,341.6,188.348,341.354,188.348,340.926Z" transform="translate(-162.156 -339.825)" fill="#228bcc"/>
              <path id="Path_124" data-name="Path 124" d="M199.094,342.88v.268c-.023,0-.046,0-.066,0a.664.664,0,0,0-.69.757v1.046h-.277V342.9h.266v.4A.773.773,0,0,1,199.094,342.88Z" transform="translate(-171.065 -342.052)" fill="#228bcc"/>
              <path id="Path_125" data-name="Path 125" d="M203.76,343.921a1.043,1.043,0,1,1,1.046,1.046A1.01,1.01,0,0,1,203.76,343.921Zm1.8,0a.762.762,0,1,0-.759.8A.747.747,0,0,0,205.565,343.921Z" transform="translate(-175.458 -342.052)" fill="#228bcc"/>
              <path id="Path_126" data-name="Path 126" d="M216.5,339.272v2.892h-.266v-.406a.885.885,0,0,1-.791.424,1.044,1.044,0,0,1,0-2.087.894.894,0,0,1,.78.406V339.27h.277Zm-.273,1.867a.762.762,0,1,0-.759.8A.749.749,0,0,0,216.225,341.139Z" transform="translate(-183.673 -339.27)" fill="#228bcc"/>
              <path id="Path_127" data-name="Path 127" d="M228.627,342.95V345h-.266v-.374a.816.816,0,0,1-.736.394.793.793,0,0,1-.865-.881v-1.188h.277v1.163a.574.574,0,0,0,.617.658.667.667,0,0,0,.7-.745v-1.076h.275Z" transform="translate(-193.183 -342.106)" fill="#228bcc"/>
              <path id="Path_128" data-name="Path 128" d="M237.38,343.921a1.01,1.01,0,0,1,1.057-1.041.892.892,0,0,1,.8.406l-.206.14a.7.7,0,0,0-.6-.3.8.8,0,0,0,0,1.6.693.693,0,0,0,.6-.3l.206.14a.9.9,0,0,1-.8.406A1.007,1.007,0,0,1,237.38,343.921Z" transform="translate(-201.368 -342.052)" fill="#228bcc"/>
              <path id="Path_129" data-name="Path 129" d="M247.961,343.373a.668.668,0,0,1-.433.144.544.544,0,0,1-.6-.6v-1.241h-.367v-.234h.367V341h.277v.447h.624v.234H247.2v1.225a.328.328,0,0,0,.355.374.457.457,0,0,0,.3-.105Z" transform="translate(-208.443 -340.603)" fill="#228bcc"/>
            </g>
          </g>
        </g>
      </g>
    </g>
    <path id="Path_130" data-name="Path 130" d="M163.734,159.483a2.771,2.771,0,1,1,2.614-2.768A2.594,2.594,0,0,1,163.734,159.483Z" transform="translate(-62.256 -78.787)" fill="#010101"/>
    <path id="Path_131" data-name="Path 131" d="M124.517,51.72V68.336h-6.974V58.694H111.27c-10.007,0-18.359,6.8-20.109,15.747h9.049a5.03,5.03,0,0,0,0,6.976H83.85V77.929a25.029,25.029,0,0,1,.243-3.488C85.882,61.631,97.387,51.72,111.27,51.72h13.248Z" transform="translate(-2.705)" fill="#228bcc"/>
    <path id="Path_132" data-name="Path 132" d="M108.158,150.8h16.36v3.488c0,14.452-12.3,26.209-27.42,26.209H83.85V163.555h6.974v9.968H97.1c10.01,0,18.362-6.8,20.109-15.747h-9.049a5.024,5.024,0,0,0,0-6.976Z" transform="translate(-2.705 -76.359)" fill="#228bcc"/>
    <path id="Path_133" data-name="Path 133" d="M98.8,154.288a4.865,4.865,0,0,0,1.406,3.488H83.85v-3.488a25.029,25.029,0,0,1,.243-3.488H100.21A4.865,4.865,0,0,0,98.8,154.288Z" transform="translate(-2.705 -76.359)" fill="#010101"/>
    <rect id="Rectangle_17824" data-name="Rectangle 17824" width="6.99" height="16.942" transform="translate(81.145 87.196)" fill="#010101"/>
  </g>
</svg>
