<svg xmlns="http://www.w3.org/2000/svg" xmlns:xlink="http://www.w3.org/1999/xlink" width="118" height="53" viewBox="0 0 118 53">
  <defs>
    <filter id="Rectangle_17823" x="0" y="0" width="118" height="53" filterUnits="userSpaceOnUse">
      <feOffset dy="3" input="SourceAlpha"/>
      <feGaussianBlur stdDeviation="3" result="blur"/>
      <feFlood flood-opacity="0.161"/>
      <feComposite operator="in" in2="blur"/>
      <feComposite in="SourceGraphic"/>
    </filter>
  </defs>
  <g id="Silbo" transform="translate(10678 20676)">
    <g transform="matrix(1, 0, 0, 1, -10678, -20676)" filter="url(#Rectangle_17823)">
      <rect id="Rectangle_17823-2" data-name="Rectangle 17823" width="100" height="35" rx="5" transform="translate(9 6)" fill="#fff"/>
    </g>
    <g id="Group_19122" data-name="Group 19122" transform="translate(1 -1)">
      <g id="Group_19111" data-name="Group 19111" transform="translate(-3553.15 -329.82)">
        <path id="Path_103" data-name="Path 103" d="M162.093,156.009a1.031,1.031,0,1,1,.973-1.03A.965.965,0,0,1,162.093,156.009Z" transform="translate(-7261.375 -20476.406)" fill="#1f2023"/>
        <path id="Path_104" data-name="Path 104" d="M98.985,51.72V57.9h-2.6V54.315H94.054a7.511,7.511,0,0,0-7.484,5.86h3.368a1.872,1.872,0,0,0,0,2.6H83.85v-1.3a9.314,9.314,0,0,1,.09-1.3A10.076,10.076,0,0,1,94.054,51.72h4.93Z" transform="translate(-7190.7 -20382.9)" fill="#228bcc"/>
        <path id="Path_105" data-name="Path 105" d="M92.9,150.8h6.088v1.3a10,10,0,0,1-10.2,9.754H83.85v-6.3h2.6v3.71H88.78a7.51,7.51,0,0,0,7.484-5.86H92.9a1.87,1.87,0,0,0,0-2.6Z" transform="translate(-7190.7 -20473.523)" fill="#228bcc"/>
        <path id="Path_106" data-name="Path 106" d="M89.415,152.1a1.81,1.81,0,0,0,.523,1.3H83.85v-1.3a9.314,9.314,0,0,1,.09-1.3h6A1.81,1.81,0,0,0,89.415,152.1Z" transform="translate(-7190.7 -20473.523)" fill="#1f2023"/>
        <rect id="Rectangle_17821" data-name="Rectangle 17821" width="2.601" height="6.305" transform="translate(-7106.85 -20317.977)" fill="#1f2023"/>
      </g>
      <g id="Group_19110" data-name="Group 19110" transform="translate(-10721.851 -20962.199)">
        <g id="Group_19109" data-name="Group 19109" transform="translate(80.34 301.2)">
          <g id="Group_19108" data-name="Group 19108">
            <g id="Group_19107" data-name="Group 19107">
              <g id="Group_19105" data-name="Group 19105" transform="translate(2.511)">
                <g id="Group_19104" data-name="Group 19104">
                  <path id="Path_81" data-name="Path 81" d="M83.5,311.2l1-2.241a6.759,6.759,0,0,0,3.546,1.057c1.257,0,1.748-.354,1.748-.874,0-1.7-6.107-.46-6.107-4.449,0-1.918,1.564-3.482,4.756-3.482a8.031,8.031,0,0,1,3.9.937L91.4,304.4a6.329,6.329,0,0,0-2.979-.827c-1.274,0-1.734.43-1.734.967,0,1.641,6.09.414,6.09,4.373,0,1.871-1.564,3.469-4.756,3.469A8.494,8.494,0,0,1,83.5,311.2Z" transform="translate(-83.5 -301.207)"/>
                  <path id="Path_82" data-name="Path 82" d="M122.41,301.85h3.039v10.74H122.41Z" transform="translate(-109.432 -301.633)"/>
                  <path id="Path_83" data-name="Path 83" d="M144.91,301.85h3.039v8.332h5.126v2.408h-8.162V301.85Z" transform="translate(-124.427 -301.633)"/>
                  <path id="Path_84" data-name="Path 84" d="M190.08,309.645c0,1.858-1.534,2.945-4.419,2.945h-5.8V301.85h5.493c2.822,0,4.206,1.151,4.206,2.808a2.532,2.532,0,0,1-1.441,2.331A2.712,2.712,0,0,1,190.08,309.645Zm-7.211-5.6v2.071h2.088c1.014,0,1.534-.354,1.534-1.044,0-.674-.52-1.027-1.534-1.027Zm4.143,5.263c0-.737-.554-1.091-1.6-1.091h-2.548V310.4h2.548C186.461,310.4,187.011,310.045,187.011,309.308Z" transform="translate(-147.72 -301.633)"/>
                  <path id="Path_85" data-name="Path 85" d="M220.48,306.787c0-3.222,2.532-5.587,5.97-5.587s5.97,2.361,5.97,5.587-2.532,5.587-5.97,5.587S220.48,310.012,220.48,306.787Zm8.869,0a2.9,2.9,0,1,0-2.9,3.069A2.876,2.876,0,0,0,229.349,306.787Z" transform="translate(-174.792 -301.2)"/>
                </g>
              </g>
              <g id="Group_19106" data-name="Group 19106" transform="translate(2.511 15.225)">
                <path id="Path_86" data-name="Path 86" d="M83.5,342.928H81.263L80.781,344H80.34l1.833-4.009h.418L84.423,344h-.448Zm-.155-.344-.964-2.153-.964,2.153Z" transform="translate(-80.34 -339.747)" fill="#228bcc"/>
                <path id="Path_87" data-name="Path 87" d="M96.936,344.164v1.745h-.408V344.2a.843.843,0,0,0-.906-.964.988.988,0,0,0-1.055,1.088v1.58H94.16v-3.012h.391v.556a1.266,1.266,0,0,1,1.145-.579A1.158,1.158,0,0,1,96.936,344.164Z" transform="translate(-89.504 -341.657)" fill="#228bcc"/>
                <path id="Path_88" data-name="Path 88" d="M110.39,339.99h.424V344h-.424Z" transform="translate(-100.266 -339.747)" fill="#228bcc"/>
                <path id="Path_89" data-name="Path 89" d="M118.036,344.164v1.745h-.408V344.2a.843.843,0,0,0-.906-.964.988.988,0,0,0-1.055,1.088v1.58h-.408v-3.012h.391v.556a1.266,1.266,0,0,1,1.145-.579A1.16,1.16,0,0,1,118.036,344.164Z" transform="translate(-103.495 -341.657)" fill="#228bcc"/>
                <path id="Path_90" data-name="Path 90" d="M128.043,342.95l-1.341,3.012h-.418l-1.334-3.012h.424l1.129,2.567,1.139-2.567Z" transform="translate(-109.921 -341.71)" fill="#228bcc"/>
                <path id="Path_91" data-name="Path 91" d="M137.6,344.528h-2.52a1.115,1.115,0,0,0,1.186,1.048,1.19,1.19,0,0,0,.923-.394l.229.263a1.592,1.592,0,0,1-2.742-1.044,1.451,1.451,0,0,1,1.472-1.53,1.433,1.433,0,0,1,1.459,1.53C137.608,344.437,137.6,344.484,137.6,344.528Zm-2.52-.3h2.136a1.07,1.07,0,0,0-2.136,0Z" transform="translate(-116.373 -341.657)" fill="#228bcc"/>
                <path id="Path_92" data-name="Path 92" d="M148.606,344.164v1.745H148.2V344.2a.843.843,0,0,0-.906-.964.988.988,0,0,0-1.055,1.088v1.58h-.408v-3.012h.391v.556a1.266,1.266,0,0,1,1.145-.579A1.16,1.16,0,0,1,148.606,344.164Z" transform="translate(-123.766 -341.657)" fill="#228bcc"/>
                <path id="Path_93" data-name="Path 93" d="M159.532,339.273v4.248h-.391v-.6a1.3,1.3,0,0,1-1.162.623,1.533,1.533,0,0,1,0-3.066,1.313,1.313,0,0,1,1.145.6V339.27h.408Zm-.4,2.742a1.12,1.12,0,1,0-1.115,1.172A1.1,1.1,0,0,0,159.131,342.016Z" transform="translate(-130.828 -339.27)" fill="#228bcc"/>
                <path id="Path_94" data-name="Path 94" d="M168.64,339.566a.293.293,0,0,1,.3-.286.287.287,0,0,1,.3.28.3.3,0,0,1-.593.007Zm.091.95h.408v3.012h-.408Z" transform="translate(-138.891 -339.277)" fill="#228bcc"/>
                <path id="Path_95" data-name="Path 95" d="M172.24,345.572l.182-.32a1.818,1.818,0,0,0,1.071.337c.573,0,.809-.2.809-.492,0-.785-1.954-.165-1.954-1.358,0-.492.424-.859,1.193-.859a2.037,2.037,0,0,1,1.065.28l-.179.327a1.555,1.555,0,0,0-.886-.259c-.546,0-.785.212-.785.5,0,.812,1.954.2,1.954,1.358,0,.522-.458.859-1.243.859A1.989,1.989,0,0,1,172.24,345.572Z" transform="translate(-141.279 -341.664)" fill="#228bcc"/>
                <path id="Path_96" data-name="Path 96" d="M189.64,341.365c0,.852-.62,1.368-1.637,1.368h-1.078V344H186.5V339.99H188C189.02,339.99,189.64,340.505,189.64,341.365Zm-.424,0c0-.64-.424-1.007-1.226-1.007h-1.065v2h1.065C188.791,342.362,189.215,341.995,189.215,341.365Z" transform="translate(-150.734 -339.747)" fill="#228bcc"/>
                <path id="Path_97" data-name="Path 97" d="M199.579,342.88v.394c-.034,0-.067-.007-.1-.007a.975.975,0,0,0-1.014,1.112v1.536h-.408V342.9h.391v.59A1.136,1.136,0,0,1,199.579,342.88Z" transform="translate(-158.4 -341.664)" fill="#228bcc"/>
                <path id="Path_98" data-name="Path 98" d="M203.76,344.41a1.533,1.533,0,1,1,1.536,1.536A1.483,1.483,0,0,1,203.76,344.41Zm2.651,0a1.12,1.12,0,1,0-1.115,1.172A1.1,1.1,0,0,0,206.411,344.41Z" transform="translate(-162.179 -341.664)" fill="#228bcc"/>
                <path id="Path_99" data-name="Path 99" d="M217.472,339.273v4.248h-.391v-.6a1.3,1.3,0,0,1-1.162.623,1.533,1.533,0,0,1,0-3.066,1.313,1.313,0,0,1,1.145.6V339.27h.408Zm-.4,2.742a1.12,1.12,0,1,0-1.115,1.172A1.1,1.1,0,0,0,217.071,342.016Z" transform="translate(-169.248 -339.27)" fill="#228bcc"/>
                <path id="Path_100" data-name="Path 100" d="M229.5,342.95v3.012h-.391v-.549a1.2,1.2,0,0,1-1.081.579,1.165,1.165,0,0,1-1.27-1.294v-1.745h.408v1.708a.844.844,0,0,0,.906.967.98.98,0,0,0,1.024-1.095v-1.58h.4Z" transform="translate(-177.431 -341.71)" fill="#228bcc"/>
                <path id="Path_101" data-name="Path 101" d="M237.38,344.41a1.484,1.484,0,0,1,1.553-1.53,1.31,1.31,0,0,1,1.179.6l-.3.206a1.023,1.023,0,0,0-.876-.448,1.173,1.173,0,0,0,0,2.345,1.017,1.017,0,0,0,.876-.441l.3.206a1.324,1.324,0,0,1-1.179.6A1.48,1.48,0,0,1,237.38,344.41Z" transform="translate(-184.473 -341.664)" fill="#228bcc"/>
                <path id="Path_102" data-name="Path 102" d="M248.618,344.487a.981.981,0,0,1-.637.212.8.8,0,0,1-.883-.876V342h-.539v-.344h.539V341h.408v.657h.916V342h-.916v1.8a.482.482,0,0,0,.522.549.672.672,0,0,0,.448-.155Z" transform="translate(-190.56 -340.417)" fill="#228bcc"/>
              </g>
            </g>
          </g>
        </g>
      </g>
    </g>
  </g>
</svg>
