<svg xmlns="http://www.w3.org/2000/svg" width="24" height="24" viewBox="0 0 24 24">
  <g id="Sim_switch" data-name="Sim switch" transform="translate(-300 -700)">
    <g id="signpost">
      <path id="Vector" d="M12.2,0H3.94A1.781,1.781,0,0,0,2.85.38L.66,2.13a1.742,1.742,0,0,0,0,2.73L2.85,6.61a1.742,1.742,0,0,0,1.09.38H12.2a1.746,1.746,0,0,0,1.75-1.75V1.74A1.743,1.743,0,0,0,12.2,0Z" transform="translate(305.02 702)" fill="none" stroke="#14213d" stroke-linecap="round" stroke-linejoin="round" stroke-width="1.5"/>
      <path id="Vector-2" data-name="Vector" d="M1.75,0h8.26A1.781,1.781,0,0,1,11.1.38l2.19,1.75a1.742,1.742,0,0,1,0,2.73L11.1,6.61a1.742,1.742,0,0,1-1.09.38H1.75A1.746,1.746,0,0,1,0,5.24V1.74A1.743,1.743,0,0,1,1.75,0Z" transform="translate(305.05 712)" fill="none" stroke="#14213d" stroke-linecap="round" stroke-linejoin="round" stroke-width="1.5"/>
      <path id="Vector-3" data-name="Vector" d="M0,3V0" transform="translate(312 709)" fill="none" stroke="#14213d" stroke-linecap="round" stroke-linejoin="round" stroke-width="1.5"/>
      <path id="Vector-4" data-name="Vector" d="M0,3V0" transform="translate(312 719)" fill="none" stroke="#14213d" stroke-linecap="round" stroke-linejoin="round" stroke-width="1.5"/>
      <path id="Vector-5" data-name="Vector" d="M0,0H6" transform="translate(309 722)" fill="none" stroke="#14213d" stroke-linecap="round" stroke-linejoin="round" stroke-width="1.5"/>
      <path id="Vector-6" data-name="Vector" d="M0,0H24V24H0Z" transform="translate(300 700)" fill="none" opacity="0"/>
    </g>
  </g>
</svg>
