<svg xmlns="http://www.w3.org/2000/svg" width="24" height="24" viewBox="0 0 24 24">
  <g id="TCP" transform="translate(-108 -316)">
    <g id="folder-connection">
      <path id="Vector" d="M0,0V3" transform="translate(120 332)" fill="none" stroke="#292d32" stroke-linecap="round" stroke-linejoin="round" stroke-width="1.5"/>
      <path id="Vector-2" data-name="Vector" d="M4,2A2,2,0,1,1,2,0,2,2,0,0,1,4,2Z" transform="translate(118 335)" fill="none" stroke="#292d32" stroke-linecap="round" stroke-linejoin="round" stroke-width="1.5"/>
      <path id="Vector-3" data-name="Vector" d="M4,0H0" transform="translate(122 337)" fill="none" stroke="#292d32" stroke-linecap="round" stroke-linejoin="round" stroke-width="1.5"/>
      <path id="Vector-4" data-name="Vector" d="M4,0H0" transform="translate(114 337)" fill="none" stroke="#292d32" stroke-linecap="round" stroke-linejoin="round" stroke-width="1.5"/>
      <path id="Vector-5" data-name="Vector" d="M0,0H24V24H0Z" transform="translate(132 340) rotate(180)" fill="none" opacity="0"/>
      <path id="Vector-6" data-name="Vector" d="M14,6.3v4.2c0,2.8-.7,3.5-3.5,3.5h-7C.7,14,0,13.3,0,10.5v-7C0,.7.7,0,3.5,0H4.55A1.657,1.657,0,0,1,6.23.84l1.05,1.4A1.113,1.113,0,0,0,8.4,2.8h2.1C13.3,2.8,14,3.5,14,6.3Z" transform="translate(113 318)" fill="none" stroke="#292d32" stroke-width="1.5"/>
      <g id="Group" transform="translate(-256 -69)">
        <path id="Vector-7" data-name="Vector" d="M2,0,0,2,2,4" transform="translate(371.5 394)" fill="none" stroke="#292d32" stroke-linecap="round" stroke-linejoin="round" stroke-width="1"/>
        <path id="Vector-8" data-name="Vector" d="M0,0,2,2,0,4" transform="translate(378.5 394)" fill="none" stroke="#292d32" stroke-linecap="round" stroke-linejoin="round" stroke-width="1"/>
      </g>
    </g>
  </g>
</svg>
