<svg xmlns="http://www.w3.org/2000/svg" width="16.997" height="17.383" viewBox="0 0 16.997 17.383">
  <g id="Internet" transform="translate(-19.159 -89.25)">
    <path id="Vector" d="M0,4.622v-.77A3.639,3.639,0,0,1,3.851,0h7.7a3.639,3.639,0,0,1,3.851,3.851v6.162a3.639,3.639,0,0,1-3.851,3.851h-.77" transform="translate(20 90)" fill="none" stroke="#14213d" stroke-linecap="round" stroke-linejoin="round" stroke-width="1.5"/>
    <g id="Group" transform="translate(-217.98 -294.777)">
      <path id="Vector-2" data-name="Vector" d="M0,0A7.382,7.382,0,0,1,6.52,6.52" transform="translate(239.69 391.71)" fill="none" stroke="#14213d" stroke-linecap="round" stroke-linejoin="round" stroke-width="1.5"/>
      <path id="Vector-3" data-name="Vector" d="M0,0A4.9,4.9,0,0,1,4.33,4.33" transform="translate(238.62 395.07)" fill="none" stroke="#14213d" stroke-linecap="round" stroke-linejoin="round" stroke-width="1.5"/>
      <path id="Vector-4" data-name="Vector" d="M0,0A1.939,1.939,0,0,1,1.71,1.71" transform="translate(237.98 398.86)" fill="none" stroke="#14213d" stroke-linecap="round" stroke-linejoin="round" stroke-width="1.5"/>
    </g>
  </g>
</svg>
