<svg xmlns="http://www.w3.org/2000/svg" width="15.561" height="19.539" viewBox="0 0 15.561 19.539">
  <g id="Routes" transform="translate(-20.566 -165.235)">
    <g id="Group" transform="translate(-473.998 -88)">
      <path id="Vector" d="M2.467,6.064a2.624,2.624,0,0,0,0,5.239h7.8a3.734,3.734,0,0,0,.589-7.427C9.765-2.7.247-.2,2.5,6.064" transform="translate(495.314 253.999)" fill="none" stroke="#14213d" stroke-linecap="round" stroke-linejoin="round" stroke-width="1.5"/>
    </g>
    <path id="Vector-2" data-name="Vector" d="M0,0V3" transform="translate(28.326 178)" fill="none" stroke="#14213d" stroke-linecap="round" stroke-linejoin="round" stroke-width="1.5"/>
    <path id="Vector-3" data-name="Vector" d="M3.023,1.512A1.512,1.512,0,1,1,1.512,0,1.512,1.512,0,0,1,3.023,1.512Z" transform="translate(26.814 181)" fill="none" stroke="#14213d" stroke-linecap="round" stroke-linejoin="round" stroke-width="1.5"/>
    <path id="Vector-4" data-name="Vector" d="M4,0H0" transform="translate(30.002 182.512)" fill="none" stroke="#14213d" stroke-linecap="round" stroke-linejoin="round" stroke-width="1.5"/>
    <path id="Vector-5" data-name="Vector" d="M4,0H0" transform="translate(22.002 182.512)" fill="none" stroke="#14213d" stroke-linecap="round" stroke-linejoin="round" stroke-width="1.5"/>
  </g>
</svg>
