<svg xmlns="http://www.w3.org/2000/svg" xmlns:xlink="http://www.w3.org/1999/xlink" width="28" height="26" viewBox="0 0 28 26">
  <defs>
    <clipPath id="clip-path">
      <rect id="Rectangle_17635" data-name="Rectangle 17635" width="28" height="26" transform="translate(-4259 5783)" fill="#fff" stroke="#707070" stroke-width="1"/>
    </clipPath>
  </defs>
  <g id="Mask_Group_172" data-name="Mask Group 172" transform="translate(4259 -5783)" clip-path="url(#clip-path)">
    <g id="analog" transform="translate(-4259.857 5781.143)">
      <path id="Path_12114" data-name="Path 12114" d="M26.929,8.821A.928.928,0,0,0,26,9.75v4.179a1.857,1.857,0,0,1-3.714,0V6.036a4.179,4.179,0,1,0-8.357,0v7.429a2.321,2.321,0,1,1-4.643,0V5.571a3.714,3.714,0,0,0-7.429,0V9.75a.929.929,0,0,0,1.857,0V5.571a1.857,1.857,0,0,1,3.714,0v7.893a4.179,4.179,0,1,0,8.357,0V6.036a2.321,2.321,0,0,1,4.643,0v7.893a3.714,3.714,0,1,0,7.429,0V9.75A.928.928,0,0,0,26.929,8.821Zm-11.8,12.808-.656.656h-.544a.929.929,0,0,0,0,1.857h.929a.926.926,0,0,0,.657-.272l.929-.929a.928.928,0,0,0-1.313-1.313Z"/>
      <path id="Path_12115" data-name="Path 12115" d="M26.929,22.286H19.5a.767.767,0,0,0-.092.019,4.641,4.641,0,0,0-9.1,0,.768.768,0,0,0-.092-.019H2.786a.929.929,0,0,0,0,1.857h7.429a.768.768,0,0,0,.092-.019,4.641,4.641,0,0,0,9.1,0,.767.767,0,0,0,.092.019h7.429a.929.929,0,0,0,0-1.857ZM14.857,26a2.786,2.786,0,1,1,2.786-2.786A2.789,2.789,0,0,1,14.857,26Z"/>
    </g>
  </g>
</svg>
