<svg xmlns="http://www.w3.org/2000/svg" width="28.75" height="26.75" viewBox="0 0 28.75 26.75">
  <g id="App_start_stop" data-name="App start/ stop" transform="translate(-620 -252)">
    <g id="hashtag-up">
      <path id="Vector" d="M26,11V7c0-5-2-7-7-7H7C2,0,0,2,0,7v6a10.745,10.745,0,0,0,.6,3.8,4.371,4.371,0,0,0,2.769,2.683A10.155,10.155,0,0,0,7,20H17" transform="translate(622 254)" fill="none" stroke="#292d32" stroke-linecap="round" stroke-linejoin="round" stroke-width="1.5"/>
      <path id="Vector-2" data-name="Vector" d="M2,6V0L0,2" transform="translate(643 272)" fill="none" stroke="#292d32" stroke-linecap="round" stroke-linejoin="round" stroke-width="1.5"/>
      <path id="Vector-3" data-name="Vector" d="M0,0,2,2" transform="translate(645 272)" fill="none" stroke="#292d32" stroke-linecap="round" stroke-linejoin="round" stroke-width="1.5"/>
      <path id="Vector-4" data-name="Vector" d="M0,0H24V24H0Z" transform="translate(620 252)" fill="none" opacity="0"/>
      <path id="Vector-5" data-name="Vector" d="M4,0H0" transform="translate(639.5 262) rotate(90)" fill="none" stroke="#292d32" stroke-linecap="round" stroke-linejoin="round" stroke-width="1.5"/>
      <path id="Vector-6" data-name="Vector" d="M3.1,1.55A1.55,1.55,0,1,1,1.55,0,1.55,1.55,0,0,1,3.1,1.55Z" transform="translate(629 262.449) rotate(90)" fill="none" stroke="#292d32" stroke-linecap="round" stroke-linejoin="round" stroke-width="1.5"/>
    </g>
  </g>
</svg>
